<mxfile host="Electron" modified="2024-03-08T19:27:11.736Z" agent="Mozilla/5.0 (Windows NT 10.0; Win64; x64) AppleWebKit/537.36 (KHTML, like Gecko) draw.io/23.1.5 Chrome/120.0.6099.109 Electron/28.1.0 Safari/537.36" etag="Tna0bddQ-KxCFvLgV2Oy" version="23.1.5" type="device">
  <diagram name="PÃ¡gina-1" id="ezASdXojOSA2GUpr3zk-">
    <mxGraphModel dx="2876" dy="1263" grid="1" gridSize="10" guides="1" tooltips="1" connect="1" arrows="1" fold="1" page="1" pageScale="1" pageWidth="827" pageHeight="1169" math="0" shadow="0">
      <root>
        <mxCell id="0" />
        <mxCell id="1" parent="0" />
        <mxCell id="oMrwoiRcGXY_ZSWIXKVv-12" value="" style="whiteSpace=wrap;html=1;" parent="1" vertex="1">
          <mxGeometry x="1050" y="110" width="180" height="170" as="geometry" />
        </mxCell>
        <mxCell id="mj1a00FP2Du6xyGbZo0E-66" style="edgeStyle=orthogonalEdgeStyle;rounded=0;orthogonalLoop=1;jettySize=auto;html=1;strokeWidth=5;strokeColor=#00FF00;entryX=0;entryY=0.5;entryDx=0;entryDy=0;exitX=1;exitY=0.5;exitDx=0;exitDy=0;jumpStyle=arc;" parent="1" source="mj1a00FP2Du6xyGbZo0E-65" target="mj1a00FP2Du6xyGbZo0E-5" edge="1">
          <mxGeometry relative="1" as="geometry">
            <mxPoint x="-100" y="480" as="sourcePoint" />
            <mxPoint x="30" y="440" as="targetPoint" />
          </mxGeometry>
        </mxCell>
        <mxCell id="mj1a00FP2Du6xyGbZo0E-67" value="xTaskNotifyFromISR()" style="edgeLabel;html=1;align=center;verticalAlign=middle;resizable=0;points=[];" parent="mj1a00FP2Du6xyGbZo0E-66" vertex="1" connectable="0">
          <mxGeometry x="0.0258" relative="1" as="geometry">
            <mxPoint x="-23" as="offset" />
          </mxGeometry>
        </mxCell>
        <mxCell id="mj1a00FP2Du6xyGbZo0E-30" style="edgeStyle=orthogonalEdgeStyle;rounded=0;orthogonalLoop=1;jettySize=auto;html=1;entryX=0;entryY=0.5;entryDx=0;entryDy=0;" parent="1" source="mj1a00FP2Du6xyGbZo0E-1" target="mj1a00FP2Du6xyGbZo0E-10" edge="1">
          <mxGeometry relative="1" as="geometry" />
        </mxCell>
        <mxCell id="mj1a00FP2Du6xyGbZo0E-1" value="&lt;p style=&quot;margin:0px;margin-top:4px;text-align:center;&quot;&gt;&lt;i&gt;&amp;lt;&amp;lt;Task&amp;gt;&amp;gt; P2&lt;/i&gt;&lt;br&gt;&lt;b&gt;Control_&lt;/b&gt;&lt;b style=&quot;background-color: initial;&quot;&gt;L&lt;/b&gt;&lt;/p&gt;&lt;hr size=&quot;1&quot;&gt;&lt;p style=&quot;margin:0px;margin-left:4px;&quot;&gt;voltageLoop()&lt;/p&gt;&lt;p style=&quot;margin:0px;margin-left:4px;&quot;&gt;currentRef()&lt;/p&gt;&lt;p style=&quot;margin:0px;margin-left:4px;&quot;&gt;idLoop()&lt;/p&gt;&lt;p style=&quot;margin:0px;margin-left:4px;&quot;&gt;iqLoop()&lt;/p&gt;&lt;p style=&quot;margin:0px;margin-left:4px;&quot;&gt;voltageSat()&lt;/p&gt;&lt;p style=&quot;margin:0px;margin-left:4px;&quot;&gt;dq2SVM()&lt;/p&gt;&lt;p style=&quot;margin:0px;margin-left:4px;&quot;&gt;&lt;br&gt;&lt;/p&gt;" style="verticalAlign=top;align=left;overflow=fill;fontSize=12;fontFamily=Helvetica;html=1;rounded=0;shadow=0;comic=0;labelBackgroundColor=none;strokeWidth=3;strokeColor=#b85450;fillColor=#f8cecc;" parent="1" vertex="1">
          <mxGeometry x="360" y="220" width="120" height="160" as="geometry" />
        </mxCell>
        <mxCell id="mj1a00FP2Du6xyGbZo0E-27" style="edgeStyle=orthogonalEdgeStyle;rounded=0;orthogonalLoop=1;jettySize=auto;html=1;entryX=0;entryY=0.5;entryDx=0;entryDy=0;jumpStyle=arc;" parent="1" source="mj1a00FP2Du6xyGbZo0E-3" target="mj1a00FP2Du6xyGbZo0E-9" edge="1">
          <mxGeometry relative="1" as="geometry" />
        </mxCell>
        <mxCell id="mj1a00FP2Du6xyGbZo0E-59" style="edgeStyle=orthogonalEdgeStyle;rounded=0;orthogonalLoop=1;jettySize=auto;html=1;entryX=0;entryY=0.25;entryDx=0;entryDy=0;strokeWidth=5;strokeColor=#00FF00;jumpStyle=arc;" parent="1" source="mj1a00FP2Du6xyGbZo0E-3" target="mj1a00FP2Du6xyGbZo0E-1" edge="1">
          <mxGeometry relative="1" as="geometry">
            <Array as="points">
              <mxPoint x="100" y="220" />
              <mxPoint x="330" y="220" />
              <mxPoint x="330" y="260" />
            </Array>
          </mxGeometry>
        </mxCell>
        <mxCell id="mj1a00FP2Du6xyGbZo0E-60" value="xTaskNotify()" style="edgeLabel;html=1;align=center;verticalAlign=middle;resizable=0;points=[];" parent="mj1a00FP2Du6xyGbZo0E-59" vertex="1" connectable="0">
          <mxGeometry x="-0.163" relative="1" as="geometry">
            <mxPoint as="offset" />
          </mxGeometry>
        </mxCell>
        <mxCell id="mj1a00FP2Du6xyGbZo0E-3" value="&lt;p style=&quot;margin:0px;margin-top:4px;text-align:center;&quot;&gt;&lt;i&gt;&amp;lt;&amp;lt;Task&amp;gt;&amp;gt; P1&lt;/i&gt;&lt;br&gt;&lt;b&gt;Measurements_&lt;/b&gt;&lt;b style=&quot;background-color: initial;&quot;&gt;L&lt;/b&gt;&lt;/p&gt;&lt;hr size=&quot;1&quot;&gt;&lt;p style=&quot;margin:0px;margin-left:4px;&quot;&gt;&lt;i&gt;readADC_L()&lt;/i&gt;&lt;/p&gt;&lt;p style=&quot;margin:0px;margin-left:4px;&quot;&gt;filterVDC()&lt;/p&gt;&lt;p style=&quot;margin:0px;margin-left:4px;&quot;&gt;filterCurrents()&lt;/p&gt;&lt;p style=&quot;margin:0px;margin-left:4px;&quot;&gt;abc2dq()&lt;/p&gt;&lt;p style=&quot;margin:0px;margin-left:4px;&quot;&gt;rect2polar()&lt;/p&gt;&lt;p style=&quot;margin:0px;margin-left:4px;&quot;&gt;TemCalc()&lt;/p&gt;" style="verticalAlign=top;align=left;overflow=fill;fontSize=12;fontFamily=Helvetica;html=1;rounded=0;shadow=0;comic=0;labelBackgroundColor=none;strokeWidth=3;strokeColor=#b85450;fillColor=#f8cecc;" parent="1" vertex="1">
          <mxGeometry x="40" y="232.5" width="120" height="135" as="geometry" />
        </mxCell>
        <mxCell id="mj1a00FP2Du6xyGbZo0E-43" style="edgeStyle=orthogonalEdgeStyle;rounded=0;orthogonalLoop=1;jettySize=auto;html=1;entryX=0;entryY=0.5;entryDx=0;entryDy=0;jumpStyle=arc;" parent="1" source="mj1a00FP2Du6xyGbZo0E-4" target="mj1a00FP2Du6xyGbZo0E-41" edge="1">
          <mxGeometry relative="1" as="geometry" />
        </mxCell>
        <mxCell id="mj1a00FP2Du6xyGbZo0E-140" style="edgeStyle=orthogonalEdgeStyle;rounded=0;orthogonalLoop=1;jettySize=auto;html=1;exitX=0.5;exitY=1;exitDx=0;exitDy=0;jumpStyle=arc;entryX=0.5;entryY=0;entryDx=0;entryDy=0;" parent="1" source="mj1a00FP2Du6xyGbZo0E-4" target="mj1a00FP2Du6xyGbZo0E-137" edge="1">
          <mxGeometry relative="1" as="geometry">
            <Array as="points">
              <mxPoint x="740" y="360" />
              <mxPoint x="740" y="540" />
              <mxPoint x="495" y="540" />
            </Array>
            <mxPoint x="490" y="570" as="targetPoint" />
          </mxGeometry>
        </mxCell>
        <mxCell id="mj1a00FP2Du6xyGbZo0E-149" style="edgeStyle=orthogonalEdgeStyle;rounded=0;orthogonalLoop=1;jettySize=auto;html=1;exitX=0;exitY=0.25;exitDx=0;exitDy=0;entryX=0.5;entryY=0;entryDx=0;entryDy=0;strokeWidth=5;strokeColor=#00FF00;" parent="1" source="mj1a00FP2Du6xyGbZo0E-4" target="mj1a00FP2Du6xyGbZo0E-4" edge="1">
          <mxGeometry relative="1" as="geometry">
            <mxPoint x="730" y="230" as="targetPoint" />
            <Array as="points">
              <mxPoint x="670" y="270" />
              <mxPoint x="670" y="210" />
              <mxPoint x="740" y="210" />
              <mxPoint x="740" y="240" />
            </Array>
          </mxGeometry>
        </mxCell>
        <mxCell id="mj1a00FP2Du6xyGbZo0E-153" value="while(1)" style="edgeLabel;html=1;align=center;verticalAlign=middle;resizable=0;points=[];" parent="mj1a00FP2Du6xyGbZo0E-149" vertex="1" connectable="0">
          <mxGeometry x="0.2925" y="-1" relative="1" as="geometry">
            <mxPoint as="offset" />
          </mxGeometry>
        </mxCell>
        <mxCell id="mj1a00FP2Du6xyGbZo0E-4" value="&lt;p style=&quot;margin:0px;margin-top:4px;text-align:center;&quot;&gt;&lt;i&gt;&amp;lt;&amp;lt;Task&amp;gt;&amp;gt;&amp;nbsp;&lt;/i&gt;&lt;i style=&quot;border-color: var(--border-color);&quot;&gt;P1&lt;/i&gt;&lt;br&gt;&lt;b&gt;Safety_L&lt;/b&gt;&lt;/p&gt;&lt;hr size=&quot;1&quot;&gt;&lt;p style=&quot;margin:0px;margin-left:4px;&quot;&gt;evOvercurrent()&lt;/p&gt;&lt;p style=&quot;border-color: var(--border-color); margin: 0px 0px 0px 4px;&quot;&gt;evOvervoltage()&lt;/p&gt;&lt;p style=&quot;border-color: var(--border-color); margin: 0px 0px 0px 4px;&quot;&gt;evOvertemp()&lt;/p&gt;&lt;p style=&quot;border-color: var(--border-color); margin: 0px 0px 0px 4px;&quot;&gt;evControlErr()&lt;/p&gt;&lt;p style=&quot;border-color: var(--border-color); margin: 0px 0px 0px 4px;&quot;&gt;setPWM()&lt;/p&gt;" style="verticalAlign=top;align=left;overflow=fill;fontSize=12;fontFamily=Helvetica;html=1;rounded=0;shadow=0;comic=0;labelBackgroundColor=none;strokeWidth=3;strokeColor=#b85450;fillColor=#f8cecc;" parent="1" vertex="1">
          <mxGeometry x="690" y="240" width="120" height="120" as="geometry" />
        </mxCell>
        <mxCell id="mj1a00FP2Du6xyGbZo0E-29" style="edgeStyle=orthogonalEdgeStyle;rounded=0;orthogonalLoop=1;jettySize=auto;html=1;entryX=0.5;entryY=1;entryDx=0;entryDy=0;jumpStyle=arc;" parent="1" source="mj1a00FP2Du6xyGbZo0E-5" target="mj1a00FP2Du6xyGbZo0E-9" edge="1">
          <mxGeometry relative="1" as="geometry" />
        </mxCell>
        <mxCell id="mj1a00FP2Du6xyGbZo0E-5" value="&lt;p style=&quot;margin:0px;margin-top:4px;text-align:center;&quot;&gt;&lt;i&gt;&amp;lt;&amp;lt;Task&amp;gt;&amp;gt; P2&lt;/i&gt;&lt;br&gt;&lt;b&gt;Position&lt;/b&gt;&lt;b style=&quot;background-color: initial;&quot;&gt;_&lt;/b&gt;&lt;b style=&quot;background-color: initial;&quot;&gt;L&lt;/b&gt;&lt;/p&gt;&lt;hr size=&quot;1&quot;&gt;&lt;p style=&quot;margin:0px;margin-left:4px;&quot;&gt;&lt;i&gt;readPosition_L()&lt;/i&gt;&lt;/p&gt;&lt;p style=&quot;margin:0px;margin-left:4px;&quot;&gt;thetae()&lt;/p&gt;&lt;p style=&quot;margin:0px;margin-left:4px;&quot;&gt;speed()&lt;/p&gt;" style="verticalAlign=top;align=left;overflow=fill;fontSize=12;fontFamily=Helvetica;html=1;rounded=0;shadow=0;comic=0;labelBackgroundColor=none;strokeWidth=3;strokeColor=#b85450;fillColor=#f8cecc;" parent="1" vertex="1">
          <mxGeometry x="40" y="400" width="120" height="120" as="geometry" />
        </mxCell>
        <mxCell id="mj1a00FP2Du6xyGbZo0E-23" style="edgeStyle=orthogonalEdgeStyle;rounded=0;orthogonalLoop=1;jettySize=auto;html=1;entryX=0;entryY=0.5;entryDx=0;entryDy=0;jumpStyle=arc;" parent="1" source="mj1a00FP2Du6xyGbZo0E-6" target="mj1a00FP2Du6xyGbZo0E-12" edge="1">
          <mxGeometry relative="1" as="geometry" />
        </mxCell>
        <mxCell id="mj1a00FP2Du6xyGbZo0E-6" value="&lt;p style=&quot;margin:0px;margin-top:4px;text-align:center;&quot;&gt;&lt;i&gt;&amp;lt;&amp;lt;Task&amp;gt;&amp;gt; P2&lt;/i&gt;&lt;br&gt;&lt;b&gt;RefManager_&lt;/b&gt;&lt;b style=&quot;background-color: initial;&quot;&gt;L&lt;/b&gt;&lt;/p&gt;&lt;hr size=&quot;1&quot;&gt;&lt;p style=&quot;margin:0px;margin-left:4px;&quot;&gt;speedLoop()&lt;/p&gt;&lt;p style=&quot;margin:0px;margin-left:4px;&quot;&gt;&lt;span style=&quot;background-color: initial;&quot;&gt;TemRefRamp()&lt;/span&gt;&lt;br&gt;&lt;/p&gt;&lt;p style=&quot;border-color: var(--border-color); margin: 0px 0px 0px 4px;&quot;&gt;TemRefSat()&lt;/p&gt;&lt;p style=&quot;margin:0px;margin-left:4px;&quot;&gt;dT()&lt;/p&gt;" style="verticalAlign=top;align=left;overflow=fill;fontSize=12;fontFamily=Helvetica;html=1;rounded=0;shadow=0;comic=0;labelBackgroundColor=none;strokeWidth=3;strokeColor=#b85450;fillColor=#f8cecc;" parent="1" vertex="1">
          <mxGeometry x="40" y="80" width="120" height="120" as="geometry" />
        </mxCell>
        <mxCell id="mj1a00FP2Du6xyGbZo0E-32" style="edgeStyle=orthogonalEdgeStyle;rounded=0;orthogonalLoop=1;jettySize=auto;html=1;entryX=1;entryY=0.5;entryDx=0;entryDy=0;jumpStyle=arc;" parent="1" source="mj1a00FP2Du6xyGbZo0E-7" target="mj1a00FP2Du6xyGbZo0E-11" edge="1">
          <mxGeometry relative="1" as="geometry" />
        </mxCell>
        <mxCell id="mj1a00FP2Du6xyGbZo0E-7" value="&lt;p style=&quot;margin:0px;margin-top:4px;text-align:center;&quot;&gt;&lt;i&gt;&amp;lt;&amp;lt;Task&amp;gt;&amp;gt; P3&lt;/i&gt;&lt;br&gt;&lt;b&gt;Derating_&lt;/b&gt;&lt;b style=&quot;background-color: initial;&quot;&gt;L&lt;/b&gt;&lt;/p&gt;&lt;hr size=&quot;1&quot;&gt;&lt;p style=&quot;margin:0px;margin-left:4px;&quot;&gt;deratingFactor()&lt;/p&gt;" style="verticalAlign=top;align=left;overflow=fill;fontSize=12;fontFamily=Helvetica;html=1;rounded=0;shadow=0;comic=0;labelBackgroundColor=none;strokeWidth=3;strokeColor=#b85450;fillColor=#f8cecc;" parent="1" vertex="1">
          <mxGeometry x="680" y="80" width="120" height="120" as="geometry" />
        </mxCell>
        <mxCell id="mj1a00FP2Du6xyGbZo0E-28" style="edgeStyle=orthogonalEdgeStyle;rounded=0;orthogonalLoop=1;jettySize=auto;html=1;entryX=0;entryY=0.5;entryDx=0;entryDy=0;" parent="1" source="mj1a00FP2Du6xyGbZo0E-9" target="mj1a00FP2Du6xyGbZo0E-1" edge="1">
          <mxGeometry relative="1" as="geometry" />
        </mxCell>
        <mxCell id="mj1a00FP2Du6xyGbZo0E-39" style="edgeStyle=orthogonalEdgeStyle;rounded=0;orthogonalLoop=1;jettySize=auto;html=1;entryX=0.25;entryY=1;entryDx=0;entryDy=0;jumpStyle=arc;" parent="1" source="mj1a00FP2Du6xyGbZo0E-9" target="mj1a00FP2Du6xyGbZo0E-4" edge="1">
          <mxGeometry relative="1" as="geometry">
            <Array as="points">
              <mxPoint x="340" y="300" />
              <mxPoint x="340" y="400" />
              <mxPoint x="720" y="400" />
            </Array>
          </mxGeometry>
        </mxCell>
        <mxCell id="mj1a00FP2Du6xyGbZo0E-162" style="edgeStyle=orthogonalEdgeStyle;rounded=0;orthogonalLoop=1;jettySize=auto;html=1;entryX=0;entryY=0.25;entryDx=0;entryDy=0;jumpStyle=arc;" parent="1" source="mj1a00FP2Du6xyGbZo0E-9" target="mj1a00FP2Du6xyGbZo0E-158" edge="1">
          <mxGeometry relative="1" as="geometry">
            <Array as="points">
              <mxPoint x="340" y="300" />
              <mxPoint x="340" y="440" />
              <mxPoint x="1080" y="440" />
              <mxPoint x="1080" y="550" />
            </Array>
          </mxGeometry>
        </mxCell>
        <mxCell id="mj1a00FP2Du6xyGbZo0E-9" value="&lt;p style=&quot;margin:0px;margin-top:4px;text-align:center;&quot;&gt;&lt;i&gt;&amp;lt;&amp;lt;Queue&amp;gt;&amp;gt;&lt;/i&gt;&lt;br&gt;&lt;b&gt;qMeasurements_&lt;/b&gt;&lt;b style=&quot;background-color: initial;&quot;&gt;L&lt;/b&gt;&lt;/p&gt;&lt;p style=&quot;margin:0px;margin-left:4px;&quot;&gt;ia_L, ib_L, ic_L&lt;/p&gt;&lt;p style=&quot;margin:0px;margin-left:4px;&quot;&gt;iq_L, id_L&lt;/p&gt;&lt;p style=&quot;margin:0px;margin-left:4px;&quot;&gt;is_L, gamma_L&lt;/p&gt;&lt;p style=&quot;margin:0px;margin-left:4px;&quot;&gt;VDC_L, thetae_L&lt;/p&gt;&lt;p style=&quot;margin:0px;margin-left:4px;&quot;&gt;we_L, wm_L, Tem_L&lt;/p&gt;" style="verticalAlign=top;align=left;overflow=fill;fontSize=12;fontFamily=Helvetica;html=1;rounded=0;shadow=0;comic=0;labelBackgroundColor=none;strokeWidth=3;strokeColor=#6c8ebf;fillColor=#dae8fc;" parent="1" vertex="1">
          <mxGeometry x="200" y="240" width="120" height="120" as="geometry" />
        </mxCell>
        <mxCell id="mj1a00FP2Du6xyGbZo0E-31" style="edgeStyle=orthogonalEdgeStyle;rounded=0;orthogonalLoop=1;jettySize=auto;html=1;entryX=0;entryY=0.5;entryDx=0;entryDy=0;jumpStyle=arc;" parent="1" source="mj1a00FP2Du6xyGbZo0E-10" target="mj1a00FP2Du6xyGbZo0E-4" edge="1">
          <mxGeometry relative="1" as="geometry" />
        </mxCell>
        <mxCell id="mj1a00FP2Du6xyGbZo0E-161" style="edgeStyle=orthogonalEdgeStyle;rounded=0;orthogonalLoop=1;jettySize=auto;html=1;entryX=0.25;entryY=0;entryDx=0;entryDy=0;jumpStyle=arc;" parent="1" source="mj1a00FP2Du6xyGbZo0E-10" target="mj1a00FP2Du6xyGbZo0E-158" edge="1">
          <mxGeometry relative="1" as="geometry">
            <Array as="points">
              <mxPoint x="660" y="300" />
              <mxPoint x="660" y="420" />
              <mxPoint x="1150" y="420" />
            </Array>
          </mxGeometry>
        </mxCell>
        <mxCell id="mj1a00FP2Du6xyGbZo0E-10" value="&lt;p style=&quot;margin:0px;margin-top:4px;text-align:center;&quot;&gt;&lt;i&gt;&amp;lt;&amp;lt;Queue&amp;gt;&amp;gt;&lt;/i&gt;&lt;br&gt;&lt;b&gt;qControl_&lt;/b&gt;&lt;b style=&quot;background-color: initial;&quot;&gt;L&lt;/b&gt;&lt;/p&gt;&lt;hr size=&quot;1&quot;&gt;&lt;p style=&quot;margin:0px;margin-left:4px;&quot;&gt;iqRef_L, idRef_L&amp;nbsp;&lt;/p&gt;&lt;p style=&quot;margin:0px;margin-left:4px;&quot;&gt;vqRef_L, vdRef_L&lt;/p&gt;&lt;p style=&quot;margin:0px;margin-left:4px;&quot;&gt;vsRef, isRef_L&lt;/p&gt;&lt;p style=&quot;margin:0px;margin-left:4px;&quot;&gt;gammaRefFW_L&lt;/p&gt;&lt;p style=&quot;margin:0px;margin-left:4px;&quot;&gt;gammaRefMTPA_L&lt;/p&gt;&lt;p style=&quot;margin:0px;margin-left:4px;&quot;&gt;&lt;span style=&quot;background-color: initial;&quot;&gt;Tem_L,&lt;/span&gt;Da_L, Db_L, Dc_L&lt;/p&gt;&lt;p style=&quot;margin:0px;margin-left:4px;&quot;&gt;&lt;span style=&quot;background-color: initial;&quot;&gt;Pmec_L, Pel_L&lt;/span&gt;&lt;/p&gt;" style="verticalAlign=top;align=left;overflow=fill;fontSize=12;fontFamily=Helvetica;html=1;rounded=0;shadow=0;comic=0;labelBackgroundColor=none;strokeWidth=3;strokeColor=#6c8ebf;fillColor=#dae8fc;" parent="1" vertex="1">
          <mxGeometry x="500" y="220" width="150" height="160" as="geometry" />
        </mxCell>
        <mxCell id="mj1a00FP2Du6xyGbZo0E-25" style="edgeStyle=orthogonalEdgeStyle;rounded=0;orthogonalLoop=1;jettySize=auto;html=1;entryX=0.75;entryY=0;entryDx=0;entryDy=0;jumpStyle=arc;" parent="1" source="mj1a00FP2Du6xyGbZo0E-11" target="mj1a00FP2Du6xyGbZo0E-1" edge="1">
          <mxGeometry relative="1" as="geometry" />
        </mxCell>
        <mxCell id="mj1a00FP2Du6xyGbZo0E-11" value="&lt;p style=&quot;margin:0px;margin-top:4px;text-align:center;&quot;&gt;&lt;i&gt;&amp;lt;&amp;lt;Queue&amp;gt;&amp;gt;&lt;/i&gt;&lt;br&gt;&lt;b&gt;qDerating_&lt;/b&gt;&lt;b style=&quot;background-color: initial;&quot;&gt;L&lt;/b&gt;&lt;/p&gt;&lt;hr size=&quot;1&quot;&gt;&lt;p style=&quot;margin:0px;margin-left:4px;&quot;&gt;deratingFactor_L&lt;/p&gt;" style="verticalAlign=top;align=left;overflow=fill;fontSize=12;fontFamily=Helvetica;html=1;rounded=0;shadow=0;comic=0;labelBackgroundColor=none;strokeWidth=3;strokeColor=#6c8ebf;fillColor=#dae8fc;" parent="1" vertex="1">
          <mxGeometry x="520" y="80" width="120" height="120" as="geometry" />
        </mxCell>
        <mxCell id="mj1a00FP2Du6xyGbZo0E-24" style="edgeStyle=orthogonalEdgeStyle;rounded=0;orthogonalLoop=1;jettySize=auto;html=1;entryX=0.25;entryY=0;entryDx=0;entryDy=0;jumpStyle=arc;" parent="1" source="mj1a00FP2Du6xyGbZo0E-12" target="mj1a00FP2Du6xyGbZo0E-1" edge="1">
          <mxGeometry relative="1" as="geometry" />
        </mxCell>
        <mxCell id="mj1a00FP2Du6xyGbZo0E-12" value="&lt;p style=&quot;margin:0px;margin-top:4px;text-align:center;&quot;&gt;&lt;i&gt;&amp;lt;&amp;lt;Queue&amp;gt;&amp;gt;&lt;/i&gt;&lt;br&gt;&lt;b&gt;qTemRefSat_&lt;/b&gt;&lt;b style=&quot;background-color: initial;&quot;&gt;L&lt;/b&gt;&lt;/p&gt;&lt;hr size=&quot;1&quot;&gt;&lt;p style=&quot;margin:0px;margin-left:4px;&quot;&gt;TemRefSat_L, dT_L&lt;/p&gt;" style="verticalAlign=top;align=left;overflow=fill;fontSize=12;fontFamily=Helvetica;html=1;rounded=0;shadow=0;comic=0;labelBackgroundColor=none;strokeWidth=3;strokeColor=#6c8ebf;fillColor=#dae8fc;" parent="1" vertex="1">
          <mxGeometry x="200" y="80" width="120" height="120" as="geometry" />
        </mxCell>
        <mxCell id="mj1a00FP2Du6xyGbZo0E-37" style="edgeStyle=orthogonalEdgeStyle;rounded=0;orthogonalLoop=1;jettySize=auto;html=1;entryX=0;entryY=0.5;entryDx=0;entryDy=0;" parent="1" source="mj1a00FP2Du6xyGbZo0E-13" target="mj1a00FP2Du6xyGbZo0E-20" edge="1">
          <mxGeometry relative="1" as="geometry" />
        </mxCell>
        <mxCell id="mj1a00FP2Du6xyGbZo0E-13" value="&lt;p style=&quot;margin:0px;margin-top:4px;text-align:center;&quot;&gt;&lt;i&gt;&amp;lt;&amp;lt;Task&amp;gt;&amp;gt; P2&lt;/i&gt;&lt;br&gt;&lt;b&gt;Control_&lt;/b&gt;&lt;b style=&quot;background-color: initial;&quot;&gt;R&lt;/b&gt;&lt;/p&gt;&lt;hr size=&quot;1&quot;&gt;&lt;p style=&quot;border-color: var(--border-color); margin: 0px 0px 0px 4px;&quot;&gt;voltageLoop()&lt;/p&gt;&lt;p style=&quot;border-color: var(--border-color); margin: 0px 0px 0px 4px;&quot;&gt;currentRef()&lt;/p&gt;&lt;p style=&quot;border-color: var(--border-color); margin: 0px 0px 0px 4px;&quot;&gt;idLoop()&lt;/p&gt;&lt;p style=&quot;border-color: var(--border-color); margin: 0px 0px 0px 4px;&quot;&gt;iqLoop()&lt;/p&gt;&lt;p style=&quot;border-color: var(--border-color); margin: 0px 0px 0px 4px;&quot;&gt;voltageSat()&lt;/p&gt;&lt;p style=&quot;border-color: var(--border-color); margin: 0px 0px 0px 4px;&quot;&gt;dq2SVM()&lt;/p&gt;" style="verticalAlign=top;align=left;overflow=fill;fontSize=12;fontFamily=Helvetica;html=1;rounded=0;shadow=0;comic=0;labelBackgroundColor=none;strokeWidth=3;strokeColor=#b85450;fillColor=#f8cecc;" parent="1" vertex="1">
          <mxGeometry x="360" y="780" width="120" height="160" as="geometry" />
        </mxCell>
        <mxCell id="mj1a00FP2Du6xyGbZo0E-35" style="edgeStyle=orthogonalEdgeStyle;rounded=0;orthogonalLoop=1;jettySize=auto;html=1;entryX=0;entryY=0.5;entryDx=0;entryDy=0;" parent="1" source="mj1a00FP2Du6xyGbZo0E-14" target="mj1a00FP2Du6xyGbZo0E-19" edge="1">
          <mxGeometry relative="1" as="geometry" />
        </mxCell>
        <mxCell id="mj1a00FP2Du6xyGbZo0E-97" style="edgeStyle=orthogonalEdgeStyle;rounded=0;orthogonalLoop=1;jettySize=auto;html=1;entryX=0;entryY=0.75;entryDx=0;entryDy=0;strokeWidth=5;strokeColor=#00FF00;jumpStyle=arc;" parent="1" source="mj1a00FP2Du6xyGbZo0E-14" target="mj1a00FP2Du6xyGbZo0E-13" edge="1">
          <mxGeometry relative="1" as="geometry">
            <Array as="points">
              <mxPoint x="100" y="940" />
              <mxPoint x="330" y="940" />
              <mxPoint x="330" y="900" />
            </Array>
          </mxGeometry>
        </mxCell>
        <mxCell id="mj1a00FP2Du6xyGbZo0E-98" value="xTaskNotify()" style="edgeLabel;html=1;align=center;verticalAlign=middle;resizable=0;points=[];" parent="mj1a00FP2Du6xyGbZo0E-97" vertex="1" connectable="0">
          <mxGeometry x="-0.1455" y="3" relative="1" as="geometry">
            <mxPoint as="offset" />
          </mxGeometry>
        </mxCell>
        <mxCell id="mj1a00FP2Du6xyGbZo0E-14" value="&lt;p style=&quot;margin:0px;margin-top:4px;text-align:center;&quot;&gt;&lt;i&gt;&amp;lt;&amp;lt;Task&amp;gt;&amp;gt; P1&lt;/i&gt;&lt;br&gt;&lt;b&gt;Measurements_&lt;/b&gt;&lt;b style=&quot;background-color: initial;&quot;&gt;R&lt;/b&gt;&lt;/p&gt;&lt;hr size=&quot;1&quot;&gt;&lt;p style=&quot;border-color: var(--border-color); margin: 0px 0px 0px 4px;&quot;&gt;&lt;i style=&quot;border-color: var(--border-color);&quot;&gt;readADC_R()&lt;/i&gt;&lt;/p&gt;&lt;p style=&quot;border-color: var(--border-color); margin: 0px 0px 0px 4px;&quot;&gt;filterVDC()&lt;/p&gt;&lt;p style=&quot;border-color: var(--border-color); margin: 0px 0px 0px 4px;&quot;&gt;filterCurrents()&lt;/p&gt;&lt;p style=&quot;border-color: var(--border-color); margin: 0px 0px 0px 4px;&quot;&gt;abc2dq()&lt;/p&gt;&lt;p style=&quot;border-color: var(--border-color); margin: 0px 0px 0px 4px;&quot;&gt;rect2polar()&lt;/p&gt;&lt;p style=&quot;border-color: var(--border-color); margin: 0px 0px 0px 4px;&quot;&gt;TemCalc&lt;/p&gt;" style="verticalAlign=top;align=left;overflow=fill;fontSize=12;fontFamily=Helvetica;html=1;rounded=0;shadow=0;comic=0;labelBackgroundColor=none;strokeWidth=3;strokeColor=#b85450;fillColor=#f8cecc;" parent="1" vertex="1">
          <mxGeometry x="40" y="792.5" width="120" height="135" as="geometry" />
        </mxCell>
        <mxCell id="mj1a00FP2Du6xyGbZo0E-45" style="edgeStyle=orthogonalEdgeStyle;rounded=0;orthogonalLoop=1;jettySize=auto;html=1;entryX=0;entryY=0.5;entryDx=0;entryDy=0;jumpStyle=arc;" parent="1" source="mj1a00FP2Du6xyGbZo0E-15" target="mj1a00FP2Du6xyGbZo0E-44" edge="1">
          <mxGeometry relative="1" as="geometry" />
        </mxCell>
        <mxCell id="mj1a00FP2Du6xyGbZo0E-141" style="edgeStyle=orthogonalEdgeStyle;rounded=0;orthogonalLoop=1;jettySize=auto;html=1;exitX=0.5;exitY=0;exitDx=0;exitDy=0;entryX=0.5;entryY=1;entryDx=0;entryDy=0;jumpStyle=arc;" parent="1" source="mj1a00FP2Du6xyGbZo0E-15" target="mj1a00FP2Du6xyGbZo0E-137" edge="1">
          <mxGeometry relative="1" as="geometry">
            <Array as="points">
              <mxPoint x="740" y="690" />
              <mxPoint x="495" y="690" />
            </Array>
          </mxGeometry>
        </mxCell>
        <mxCell id="mj1a00FP2Du6xyGbZo0E-15" value="&lt;p style=&quot;margin:0px;margin-top:4px;text-align:center;&quot;&gt;&lt;i&gt;&amp;lt;&amp;lt;Task&amp;gt;&amp;gt; P1&lt;/i&gt;&lt;br&gt;&lt;b&gt;Safety_R&lt;/b&gt;&lt;/p&gt;&lt;hr size=&quot;1&quot;&gt;&lt;p style=&quot;border-color: var(--border-color); margin: 0px 0px 0px 4px;&quot;&gt;evOvercurrent()&lt;/p&gt;&lt;p style=&quot;border-color: var(--border-color); margin: 0px 0px 0px 4px;&quot;&gt;evOvervoltage()&lt;/p&gt;&lt;p style=&quot;border-color: var(--border-color); margin: 0px 0px 0px 4px;&quot;&gt;evOvertemp()&lt;/p&gt;&lt;p style=&quot;border-color: var(--border-color); margin: 0px 0px 0px 4px;&quot;&gt;evControlErr()&lt;/p&gt;&lt;p style=&quot;border-color: var(--border-color); margin: 0px 0px 0px 4px;&quot;&gt;setPWM()&lt;/p&gt;" style="verticalAlign=top;align=left;overflow=fill;fontSize=12;fontFamily=Helvetica;html=1;rounded=0;shadow=0;comic=0;labelBackgroundColor=none;strokeWidth=3;strokeColor=#b85450;fillColor=#f8cecc;" parent="1" vertex="1">
          <mxGeometry x="700" y="800" width="120" height="120" as="geometry" />
        </mxCell>
        <mxCell id="mj1a00FP2Du6xyGbZo0E-34" style="edgeStyle=orthogonalEdgeStyle;rounded=0;orthogonalLoop=1;jettySize=auto;html=1;entryX=0.16;entryY=-0.001;entryDx=0;entryDy=0;jumpStyle=arc;entryPerimeter=0;" parent="1" source="mj1a00FP2Du6xyGbZo0E-16" target="mj1a00FP2Du6xyGbZo0E-19" edge="1">
          <mxGeometry relative="1" as="geometry">
            <Array as="points">
              <mxPoint x="220" y="700" />
              <mxPoint x="220" y="795" />
            </Array>
          </mxGeometry>
        </mxCell>
        <mxCell id="mj1a00FP2Du6xyGbZo0E-16" value="&lt;p style=&quot;margin:0px;margin-top:4px;text-align:center;&quot;&gt;&lt;i&gt;&amp;lt;&amp;lt;Task&amp;gt;&amp;gt; P2&lt;/i&gt;&lt;br&gt;&lt;b&gt;Position&lt;/b&gt;&lt;b style=&quot;background-color: initial;&quot;&gt;_&lt;/b&gt;&lt;b style=&quot;background-color: initial;&quot;&gt;R&lt;/b&gt;&lt;/p&gt;&lt;hr size=&quot;1&quot;&gt;&lt;p style=&quot;border-color: var(--border-color); margin: 0px 0px 0px 4px;&quot;&gt;&lt;i style=&quot;border-color: var(--border-color);&quot;&gt;read&lt;i style=&quot;border-color: var(--border-color);&quot;&gt;Position&lt;/i&gt;_R()&lt;/i&gt;&lt;/p&gt;&lt;p style=&quot;border-color: var(--border-color); margin: 0px 0px 0px 4px;&quot;&gt;thetae()&lt;/p&gt;&lt;p style=&quot;border-color: var(--border-color); margin: 0px 0px 0px 4px;&quot;&gt;speed()&lt;/p&gt;" style="verticalAlign=top;align=left;overflow=fill;fontSize=12;fontFamily=Helvetica;html=1;rounded=0;shadow=0;comic=0;labelBackgroundColor=none;strokeWidth=3;strokeColor=#b85450;fillColor=#f8cecc;" parent="1" vertex="1">
          <mxGeometry x="40" y="640" width="120" height="120" as="geometry" />
        </mxCell>
        <mxCell id="mj1a00FP2Du6xyGbZo0E-50" style="edgeStyle=orthogonalEdgeStyle;rounded=0;orthogonalLoop=1;jettySize=auto;html=1;entryX=0;entryY=0.5;entryDx=0;entryDy=0;jumpStyle=arc;" parent="1" source="mj1a00FP2Du6xyGbZo0E-17" target="mj1a00FP2Du6xyGbZo0E-22" edge="1">
          <mxGeometry relative="1" as="geometry" />
        </mxCell>
        <mxCell id="mj1a00FP2Du6xyGbZo0E-17" value="&lt;p style=&quot;margin:0px;margin-top:4px;text-align:center;&quot;&gt;&lt;i&gt;&amp;lt;&amp;lt;Task&amp;gt;&amp;gt; P2&lt;/i&gt;&lt;br&gt;&lt;b&gt;RefManager_&lt;/b&gt;&lt;b style=&quot;background-color: initial;&quot;&gt;R&lt;/b&gt;&lt;/p&gt;&lt;hr size=&quot;1&quot;&gt;&lt;p style=&quot;border-color: var(--border-color); margin: 0px 0px 0px 4px;&quot;&gt;speedLoop()&lt;/p&gt;&lt;p style=&quot;border-color: var(--border-color); margin: 0px 0px 0px 4px;&quot;&gt;TemRefRamp()&lt;br style=&quot;border-color: var(--border-color);&quot;&gt;&lt;/p&gt;&lt;p style=&quot;border-color: var(--border-color); margin: 0px 0px 0px 4px;&quot;&gt;TemRefSat()&lt;/p&gt;&lt;p style=&quot;border-color: var(--border-color); margin: 0px 0px 0px 4px;&quot;&gt;dT()&lt;/p&gt;" style="verticalAlign=top;align=left;overflow=fill;fontSize=12;fontFamily=Helvetica;html=1;rounded=0;shadow=0;comic=0;labelBackgroundColor=none;strokeWidth=3;strokeColor=#b85450;fillColor=#f8cecc;" parent="1" vertex="1">
          <mxGeometry x="40" y="960" width="120" height="120" as="geometry" />
        </mxCell>
        <mxCell id="mj1a00FP2Du6xyGbZo0E-47" style="edgeStyle=orthogonalEdgeStyle;rounded=0;orthogonalLoop=1;jettySize=auto;html=1;entryX=1;entryY=0.5;entryDx=0;entryDy=0;" parent="1" source="mj1a00FP2Du6xyGbZo0E-18" target="mj1a00FP2Du6xyGbZo0E-21" edge="1">
          <mxGeometry relative="1" as="geometry" />
        </mxCell>
        <mxCell id="mj1a00FP2Du6xyGbZo0E-18" value="&lt;p style=&quot;margin:0px;margin-top:4px;text-align:center;&quot;&gt;&lt;i&gt;&amp;lt;&amp;lt;Task&amp;gt;&amp;gt; P3&lt;/i&gt;&lt;br&gt;&lt;b&gt;Derating_&lt;/b&gt;&lt;b style=&quot;background-color: initial;&quot;&gt;R&lt;/b&gt;&lt;/p&gt;&lt;hr size=&quot;1&quot;&gt;&lt;p style=&quot;margin:0px;margin-left:4px;&quot;&gt;deratingFactor()&lt;br&gt;&lt;/p&gt;&lt;p style=&quot;margin:0px;margin-left:4px;&quot;&gt;&lt;br&gt;&lt;/p&gt;" style="verticalAlign=top;align=left;overflow=fill;fontSize=12;fontFamily=Helvetica;html=1;rounded=0;shadow=0;comic=0;labelBackgroundColor=none;strokeWidth=3;strokeColor=#b85450;fillColor=#f8cecc;" parent="1" vertex="1">
          <mxGeometry x="680" y="960" width="120" height="120" as="geometry" />
        </mxCell>
        <mxCell id="mj1a00FP2Du6xyGbZo0E-36" style="edgeStyle=orthogonalEdgeStyle;rounded=0;orthogonalLoop=1;jettySize=auto;html=1;entryX=0;entryY=0.5;entryDx=0;entryDy=0;" parent="1" source="mj1a00FP2Du6xyGbZo0E-19" target="mj1a00FP2Du6xyGbZo0E-13" edge="1">
          <mxGeometry relative="1" as="geometry" />
        </mxCell>
        <mxCell id="mj1a00FP2Du6xyGbZo0E-40" style="edgeStyle=orthogonalEdgeStyle;rounded=0;orthogonalLoop=1;jettySize=auto;html=1;entryX=0.25;entryY=0;entryDx=0;entryDy=0;jumpStyle=arc;" parent="1" source="mj1a00FP2Du6xyGbZo0E-19" target="mj1a00FP2Du6xyGbZo0E-15" edge="1">
          <mxGeometry relative="1" as="geometry">
            <Array as="points">
              <mxPoint x="340" y="860" />
              <mxPoint x="340" y="760" />
              <mxPoint x="730" y="760" />
            </Array>
          </mxGeometry>
        </mxCell>
        <mxCell id="mj1a00FP2Du6xyGbZo0E-164" style="edgeStyle=orthogonalEdgeStyle;rounded=0;orthogonalLoop=1;jettySize=auto;html=1;entryX=0;entryY=0.75;entryDx=0;entryDy=0;" parent="1" source="mj1a00FP2Du6xyGbZo0E-19" target="mj1a00FP2Du6xyGbZo0E-158" edge="1">
          <mxGeometry relative="1" as="geometry">
            <Array as="points">
              <mxPoint x="340" y="860" />
              <mxPoint x="340" y="720" />
              <mxPoint x="1080" y="720" />
              <mxPoint x="1080" y="610" />
            </Array>
          </mxGeometry>
        </mxCell>
        <mxCell id="mj1a00FP2Du6xyGbZo0E-19" value="&lt;p style=&quot;margin:0px;margin-top:4px;text-align:center;&quot;&gt;&lt;i&gt;&amp;lt;&amp;lt;Queue&amp;gt;&amp;gt;&lt;/i&gt;&lt;br&gt;&lt;b&gt;qMeasurements_&lt;/b&gt;&lt;b style=&quot;background-color: initial;&quot;&gt;R&lt;/b&gt;&lt;/p&gt;&lt;hr size=&quot;1&quot;&gt;&lt;p style=&quot;margin:0px;margin-left:4px;&quot;&gt;ia_R, ib_R, ic_R&lt;/p&gt;&lt;p style=&quot;margin:0px;margin-left:4px;&quot;&gt;iq_R, id_R&lt;/p&gt;&lt;p style=&quot;margin:0px;margin-left:4px;&quot;&gt;is_R, gamma_R&lt;/p&gt;&lt;p style=&quot;margin:0px;margin-left:4px;&quot;&gt;VDC_R, thetae_R&lt;/p&gt;&lt;p style=&quot;margin:0px;margin-left:4px;&quot;&gt;we_R, wm_R, Tem_R&lt;/p&gt;" style="verticalAlign=top;align=left;overflow=fill;fontSize=12;fontFamily=Helvetica;html=1;rounded=0;shadow=0;comic=0;labelBackgroundColor=none;strokeWidth=3;strokeColor=#6c8ebf;fillColor=#dae8fc;" parent="1" vertex="1">
          <mxGeometry x="200" y="795" width="120" height="130" as="geometry" />
        </mxCell>
        <mxCell id="mj1a00FP2Du6xyGbZo0E-38" style="edgeStyle=orthogonalEdgeStyle;rounded=0;orthogonalLoop=1;jettySize=auto;html=1;entryX=0;entryY=0.5;entryDx=0;entryDy=0;jumpStyle=arc;" parent="1" source="mj1a00FP2Du6xyGbZo0E-20" target="mj1a00FP2Du6xyGbZo0E-15" edge="1">
          <mxGeometry relative="1" as="geometry" />
        </mxCell>
        <mxCell id="mj1a00FP2Du6xyGbZo0E-163" style="edgeStyle=orthogonalEdgeStyle;rounded=0;orthogonalLoop=1;jettySize=auto;html=1;entryX=0.25;entryY=1;entryDx=0;entryDy=0;" parent="1" source="mj1a00FP2Du6xyGbZo0E-20" target="mj1a00FP2Du6xyGbZo0E-158" edge="1">
          <mxGeometry relative="1" as="geometry">
            <Array as="points">
              <mxPoint x="660" y="860" />
              <mxPoint x="660" y="740" />
              <mxPoint x="1150" y="740" />
            </Array>
          </mxGeometry>
        </mxCell>
        <mxCell id="mj1a00FP2Du6xyGbZo0E-20" value="&lt;p style=&quot;margin:0px;margin-top:4px;text-align:center;&quot;&gt;&lt;i&gt;&amp;lt;&amp;lt;Queue&amp;gt;&amp;gt;&lt;/i&gt;&lt;br&gt;&lt;b&gt;qControl_&lt;/b&gt;&lt;b style=&quot;background-color: initial;&quot;&gt;R&lt;/b&gt;&lt;/p&gt;&lt;hr size=&quot;1&quot;&gt;&lt;p style=&quot;margin:0px;margin-left:4px;&quot;&gt;iqRef_R, idRef_R&amp;nbsp;&lt;/p&gt;&lt;p style=&quot;margin:0px;margin-left:4px;&quot;&gt;vqRef_R, vdRef_R&lt;/p&gt;&lt;p style=&quot;margin:0px;margin-left:4px;&quot;&gt;vsRef, isRef_R&lt;/p&gt;&lt;p style=&quot;margin:0px;margin-left:4px;&quot;&gt;gammaRefFW_R&lt;/p&gt;&lt;p style=&quot;margin:0px;margin-left:4px;&quot;&gt;gammaRefMTPA_R&lt;/p&gt;&lt;p style=&quot;border-color: var(--border-color); margin: 0px 0px 0px 4px;&quot;&gt;Tem_R,Da_R, Db_R, Dc_R&lt;/p&gt;&lt;p style=&quot;margin:0px;margin-left:4px;&quot;&gt;&lt;span style=&quot;background-color: initial;&quot;&gt;Pmec_R, Pel_R&lt;/span&gt;&lt;br&gt;&lt;/p&gt;" style="verticalAlign=top;align=left;overflow=fill;fontSize=12;fontFamily=Helvetica;html=1;rounded=0;shadow=0;comic=0;labelBackgroundColor=none;strokeWidth=3;strokeColor=#6c8ebf;fillColor=#dae8fc;" parent="1" vertex="1">
          <mxGeometry x="500" y="780" width="150" height="160" as="geometry" />
        </mxCell>
        <mxCell id="mj1a00FP2Du6xyGbZo0E-48" style="edgeStyle=orthogonalEdgeStyle;rounded=0;orthogonalLoop=1;jettySize=auto;html=1;entryX=0.75;entryY=1;entryDx=0;entryDy=0;jumpStyle=arc;" parent="1" source="mj1a00FP2Du6xyGbZo0E-21" target="mj1a00FP2Du6xyGbZo0E-13" edge="1">
          <mxGeometry relative="1" as="geometry" />
        </mxCell>
        <mxCell id="mj1a00FP2Du6xyGbZo0E-21" value="&lt;p style=&quot;margin:0px;margin-top:4px;text-align:center;&quot;&gt;&lt;i&gt;&amp;lt;&amp;lt;Queue&amp;gt;&amp;gt;&lt;/i&gt;&lt;br&gt;&lt;b&gt;qDerating_&lt;/b&gt;&lt;b style=&quot;background-color: initial;&quot;&gt;R&lt;/b&gt;&lt;/p&gt;&lt;hr size=&quot;1&quot;&gt;&lt;p style=&quot;margin:0px;margin-left:4px;&quot;&gt;deratingFactor_R&lt;br&gt;&lt;/p&gt;" style="verticalAlign=top;align=left;overflow=fill;fontSize=12;fontFamily=Helvetica;html=1;rounded=0;shadow=0;comic=0;labelBackgroundColor=none;strokeWidth=3;strokeColor=#6c8ebf;fillColor=#dae8fc;" parent="1" vertex="1">
          <mxGeometry x="520" y="960" width="120" height="120" as="geometry" />
        </mxCell>
        <mxCell id="mj1a00FP2Du6xyGbZo0E-49" style="edgeStyle=orthogonalEdgeStyle;rounded=0;orthogonalLoop=1;jettySize=auto;html=1;entryX=0.25;entryY=1;entryDx=0;entryDy=0;jumpStyle=arc;" parent="1" source="mj1a00FP2Du6xyGbZo0E-22" target="mj1a00FP2Du6xyGbZo0E-13" edge="1">
          <mxGeometry relative="1" as="geometry" />
        </mxCell>
        <mxCell id="mj1a00FP2Du6xyGbZo0E-22" value="&lt;p style=&quot;margin:0px;margin-top:4px;text-align:center;&quot;&gt;&lt;i&gt;&amp;lt;&amp;lt;Queue&amp;gt;&amp;gt;&lt;/i&gt;&lt;br&gt;&lt;b&gt;qTemRefSat_&lt;/b&gt;&lt;b style=&quot;background-color: initial;&quot;&gt;R&lt;/b&gt;&lt;/p&gt;&lt;hr size=&quot;1&quot;&gt;&lt;p style=&quot;margin:0px;margin-left:4px;&quot;&gt;TemRefSat_R, dT_R&lt;/p&gt;" style="verticalAlign=top;align=left;overflow=fill;fontSize=12;fontFamily=Helvetica;html=1;rounded=0;shadow=0;comic=0;labelBackgroundColor=none;strokeWidth=3;strokeColor=#6c8ebf;fillColor=#dae8fc;" parent="1" vertex="1">
          <mxGeometry x="200" y="960" width="120" height="120" as="geometry" />
        </mxCell>
        <mxCell id="mj1a00FP2Du6xyGbZo0E-156" style="edgeStyle=orthogonalEdgeStyle;rounded=0;orthogonalLoop=1;jettySize=auto;html=1;entryX=0.5;entryY=0;entryDx=0;entryDy=0;jumpStyle=arc;" parent="1" source="mj1a00FP2Du6xyGbZo0E-41" target="mj1a00FP2Du6xyGbZo0E-158" edge="1">
          <mxGeometry relative="1" as="geometry">
            <mxPoint x="1200" y="520" as="targetPoint" />
          </mxGeometry>
        </mxCell>
        <mxCell id="mj1a00FP2Du6xyGbZo0E-41" value="&lt;p style=&quot;margin:0px;margin-top:4px;text-align:center;&quot;&gt;&lt;i&gt;&amp;lt;&amp;lt;Queue&amp;gt;&amp;gt;&lt;/i&gt;&lt;br&gt;&lt;b&gt;qStatus_&lt;/b&gt;&lt;b style=&quot;background-color: initial;&quot;&gt;L&lt;/b&gt;&lt;/p&gt;&lt;hr size=&quot;1&quot;&gt;&lt;p style=&quot;margin:0px;margin-left:4px;&quot;&gt;Overcurrent_L&lt;/p&gt;&lt;p style=&quot;margin:0px;margin-left:4px;&quot;&gt;Overvoltage_L&lt;/p&gt;&lt;p style=&quot;margin:0px;margin-left:4px;&quot;&gt;Overtemp_L&lt;/p&gt;&lt;p style=&quot;margin:0px;margin-left:4px;&quot;&gt;Trip_L&lt;/p&gt;&lt;p style=&quot;margin:0px;margin-left:4px;&quot;&gt;ControlErr_L&lt;/p&gt;" style="verticalAlign=top;align=left;overflow=fill;fontSize=12;fontFamily=Helvetica;html=1;rounded=0;shadow=0;comic=0;labelBackgroundColor=none;strokeWidth=3;strokeColor=#6c8ebf;fillColor=#dae8fc;" parent="1" vertex="1">
          <mxGeometry x="840" y="240" width="120" height="120" as="geometry" />
        </mxCell>
        <mxCell id="mj1a00FP2Du6xyGbZo0E-157" style="edgeStyle=orthogonalEdgeStyle;rounded=0;orthogonalLoop=1;jettySize=auto;html=1;entryX=0.5;entryY=1;entryDx=0;entryDy=0;jumpStyle=arc;" parent="1" source="mj1a00FP2Du6xyGbZo0E-44" target="mj1a00FP2Du6xyGbZo0E-158" edge="1">
          <mxGeometry relative="1" as="geometry">
            <mxPoint x="1200" y="640" as="targetPoint" />
          </mxGeometry>
        </mxCell>
        <mxCell id="mj1a00FP2Du6xyGbZo0E-44" value="&lt;p style=&quot;margin:0px;margin-top:4px;text-align:center;&quot;&gt;&lt;i&gt;&amp;lt;&amp;lt;Queue&amp;gt;&amp;gt;&lt;/i&gt;&lt;br&gt;&lt;b&gt;qStatus_R&lt;/b&gt;&lt;/p&gt;&lt;hr size=&quot;1&quot;&gt;&lt;p style=&quot;border-color: var(--border-color); margin: 0px 0px 0px 4px;&quot;&gt;Overcurrent_R&lt;/p&gt;&lt;p style=&quot;border-color: var(--border-color); margin: 0px 0px 0px 4px;&quot;&gt;Overvoltage_R&lt;/p&gt;&lt;p style=&quot;border-color: var(--border-color); margin: 0px 0px 0px 4px;&quot;&gt;Overtemp_R&lt;/p&gt;&lt;p style=&quot;border-color: var(--border-color); margin: 0px 0px 0px 4px;&quot;&gt;Trip_R&lt;/p&gt;&lt;p style=&quot;border-color: var(--border-color); margin: 0px 0px 0px 4px;&quot;&gt;ControlErr_R&lt;/p&gt;" style="verticalAlign=top;align=left;overflow=fill;fontSize=12;fontFamily=Helvetica;html=1;rounded=0;shadow=0;comic=0;labelBackgroundColor=none;strokeWidth=3;strokeColor=#6c8ebf;fillColor=#dae8fc;" parent="1" vertex="1">
          <mxGeometry x="840" y="800" width="120" height="120" as="geometry" />
        </mxCell>
        <mxCell id="mj1a00FP2Du6xyGbZo0E-54" style="edgeStyle=orthogonalEdgeStyle;rounded=0;orthogonalLoop=1;jettySize=auto;html=1;entryX=0;entryY=0.5;entryDx=0;entryDy=0;" parent="1" source="mj1a00FP2Du6xyGbZo0E-52" target="mj1a00FP2Du6xyGbZo0E-53" edge="1">
          <mxGeometry relative="1" as="geometry" />
        </mxCell>
        <mxCell id="mj1a00FP2Du6xyGbZo0E-52" value="&lt;p style=&quot;margin:0px;margin-top:4px;text-align:center;&quot;&gt;&lt;i&gt;&amp;lt;&amp;lt;Task&amp;gt;&amp;gt; P3&lt;/i&gt;&lt;br&gt;&lt;b&gt;Temperatures&lt;/b&gt;&lt;/p&gt;&lt;hr size=&quot;1&quot;&gt;&lt;p style=&quot;border-color: var(--border-color); margin: 0px 0px 0px 4px;&quot;&gt;readADC()&lt;/p&gt;&lt;div&gt;&lt;p style=&quot;border-color: var(--border-color); margin: 0px 0px 0px 4px;&quot;&gt;filterTemperatures()&lt;/p&gt;&lt;/div&gt;&lt;div&gt;&lt;br&gt;&lt;/div&gt;" style="verticalAlign=top;align=left;overflow=fill;fontSize=12;fontFamily=Helvetica;html=1;rounded=0;shadow=0;comic=0;labelBackgroundColor=none;strokeWidth=3;strokeColor=#b85450;fillColor=#f8cecc;" parent="1" vertex="1">
          <mxGeometry x="800" y="520" width="120" height="120" as="geometry" />
        </mxCell>
        <mxCell id="mj1a00FP2Du6xyGbZo0E-55" style="edgeStyle=orthogonalEdgeStyle;rounded=0;orthogonalLoop=1;jettySize=auto;html=1;entryX=0.75;entryY=1;entryDx=0;entryDy=0;jumpStyle=arc;" parent="1" source="mj1a00FP2Du6xyGbZo0E-53" target="mj1a00FP2Du6xyGbZo0E-4" edge="1">
          <mxGeometry relative="1" as="geometry">
            <Array as="points">
              <mxPoint x="1000" y="400" />
              <mxPoint x="780" y="400" />
            </Array>
          </mxGeometry>
        </mxCell>
        <mxCell id="mj1a00FP2Du6xyGbZo0E-56" style="edgeStyle=orthogonalEdgeStyle;rounded=0;orthogonalLoop=1;jettySize=auto;html=1;entryX=0.75;entryY=0;entryDx=0;entryDy=0;jumpStyle=arc;" parent="1" source="mj1a00FP2Du6xyGbZo0E-53" target="mj1a00FP2Du6xyGbZo0E-15" edge="1">
          <mxGeometry relative="1" as="geometry">
            <Array as="points">
              <mxPoint x="1000" y="760" />
              <mxPoint x="790" y="760" />
            </Array>
          </mxGeometry>
        </mxCell>
        <mxCell id="mj1a00FP2Du6xyGbZo0E-73" style="edgeStyle=orthogonalEdgeStyle;rounded=0;orthogonalLoop=1;jettySize=auto;html=1;entryX=1;entryY=0.5;entryDx=0;entryDy=0;jumpStyle=arc;" parent="1" source="mj1a00FP2Du6xyGbZo0E-53" target="mj1a00FP2Du6xyGbZo0E-7" edge="1">
          <mxGeometry relative="1" as="geometry">
            <Array as="points">
              <mxPoint x="1000" y="140" />
            </Array>
          </mxGeometry>
        </mxCell>
        <mxCell id="mj1a00FP2Du6xyGbZo0E-74" style="edgeStyle=orthogonalEdgeStyle;rounded=0;orthogonalLoop=1;jettySize=auto;html=1;entryX=1;entryY=0.5;entryDx=0;entryDy=0;jumpStyle=arc;" parent="1" source="mj1a00FP2Du6xyGbZo0E-53" target="mj1a00FP2Du6xyGbZo0E-18" edge="1">
          <mxGeometry relative="1" as="geometry">
            <Array as="points">
              <mxPoint x="1000" y="1020" />
            </Array>
          </mxGeometry>
        </mxCell>
        <mxCell id="Qu-kICh-btU63BKfISR2-1" style="edgeStyle=orthogonalEdgeStyle;rounded=0;orthogonalLoop=1;jettySize=auto;html=1;entryX=1;entryY=0.25;entryDx=0;entryDy=0;strokeWidth=5;strokeColor=#00FF00;" parent="1" source="mj1a00FP2Du6xyGbZo0E-53" target="mj1a00FP2Du6xyGbZo0E-7" edge="1">
          <mxGeometry relative="1" as="geometry">
            <Array as="points">
              <mxPoint x="1030" y="110" />
            </Array>
          </mxGeometry>
        </mxCell>
        <mxCell id="Qu-kICh-btU63BKfISR2-3" value="xTaskNotify()" style="edgeLabel;html=1;align=center;verticalAlign=middle;resizable=0;points=[];" parent="Qu-kICh-btU63BKfISR2-1" vertex="1" connectable="0">
          <mxGeometry x="0.625" y="3" relative="1" as="geometry">
            <mxPoint y="-3" as="offset" />
          </mxGeometry>
        </mxCell>
        <mxCell id="Qu-kICh-btU63BKfISR2-4" style="edgeStyle=orthogonalEdgeStyle;rounded=0;orthogonalLoop=1;jettySize=auto;html=1;entryX=1;entryY=0.75;entryDx=0;entryDy=0;strokeWidth=5;strokeColor=#00FF00;" parent="1" source="mj1a00FP2Du6xyGbZo0E-53" target="mj1a00FP2Du6xyGbZo0E-18" edge="1">
          <mxGeometry relative="1" as="geometry">
            <Array as="points">
              <mxPoint x="1030" y="1050" />
            </Array>
          </mxGeometry>
        </mxCell>
        <mxCell id="Qu-kICh-btU63BKfISR2-5" value="xTaskNotify()" style="edgeLabel;html=1;align=center;verticalAlign=middle;resizable=0;points=[];" parent="Qu-kICh-btU63BKfISR2-4" vertex="1" connectable="0">
          <mxGeometry x="0.65" y="-3" relative="1" as="geometry">
            <mxPoint y="3" as="offset" />
          </mxGeometry>
        </mxCell>
        <mxCell id="mj1a00FP2Du6xyGbZo0E-53" value="&lt;p style=&quot;margin:0px;margin-top:4px;text-align:center;&quot;&gt;&lt;i&gt;&amp;lt;&amp;lt;Queue&amp;gt;&amp;gt;&lt;/i&gt;&lt;br&gt;&lt;b style=&quot;border-color: var(--border-color);&quot;&gt;qTemperatures&lt;/b&gt;&lt;br&gt;&lt;/p&gt;&lt;hr size=&quot;1&quot;&gt;&lt;p style=&quot;margin:0px;margin-left:4px;&quot;&gt;Tinv_L, Tinv_R&lt;/p&gt;&lt;p style=&quot;margin:0px;margin-left:4px;&quot;&gt;Tmot_L, Tmot_R&lt;/p&gt;" style="verticalAlign=top;align=left;overflow=fill;fontSize=12;fontFamily=Helvetica;html=1;rounded=0;shadow=0;comic=0;labelBackgroundColor=none;strokeWidth=3;strokeColor=#6c8ebf;fillColor=#dae8fc;" parent="1" vertex="1">
          <mxGeometry x="940" y="520" width="120" height="120" as="geometry" />
        </mxCell>
        <mxCell id="mj1a00FP2Du6xyGbZo0E-63" style="edgeStyle=orthogonalEdgeStyle;rounded=0;orthogonalLoop=1;jettySize=auto;html=1;entryX=0;entryY=0.25;entryDx=0;entryDy=0;strokeWidth=5;strokeColor=#00FF00;exitX=1;exitY=0.25;exitDx=0;exitDy=0;" parent="1" source="mj1a00FP2Du6xyGbZo0E-62" target="mj1a00FP2Du6xyGbZo0E-3" edge="1">
          <mxGeometry relative="1" as="geometry">
            <mxPoint x="-100" y="320" as="sourcePoint" />
          </mxGeometry>
        </mxCell>
        <mxCell id="mj1a00FP2Du6xyGbZo0E-64" value="xTaskNotifyFromISR()" style="edgeLabel;html=1;align=center;verticalAlign=middle;resizable=0;points=[];" parent="mj1a00FP2Du6xyGbZo0E-63" vertex="1" connectable="0">
          <mxGeometry x="0.0258" relative="1" as="geometry">
            <mxPoint x="-23" as="offset" />
          </mxGeometry>
        </mxCell>
        <mxCell id="mj1a00FP2Du6xyGbZo0E-62" value="&lt;p style=&quot;margin:0px;margin-top:4px;text-align:center;&quot;&gt;&lt;i&gt;&amp;lt;&amp;lt;External&amp;gt;&amp;gt;&lt;/i&gt;&lt;br&gt;&lt;b&gt;TIM1&lt;/b&gt;&lt;/p&gt;&lt;hr size=&quot;1&quot;&gt;&lt;p style=&quot;margin:0px;margin-left:4px;&quot;&gt;50kHz&lt;/p&gt;" style="verticalAlign=top;align=left;overflow=fill;fontSize=12;fontFamily=Helvetica;html=1;rounded=0;shadow=0;comic=0;labelBackgroundColor=none;strokeWidth=3;strokeColor=#82b366;fillColor=#d5e8d4;" parent="1" vertex="1">
          <mxGeometry x="-340" y="240" width="120" height="120" as="geometry" />
        </mxCell>
        <mxCell id="mj1a00FP2Du6xyGbZo0E-65" value="&lt;p style=&quot;margin:0px;margin-top:4px;text-align:center;&quot;&gt;&lt;i&gt;&amp;lt;&amp;lt;External&amp;gt;&amp;gt;&lt;/i&gt;&lt;br&gt;&lt;b style=&quot;border-color: var(--border-color);&quot;&gt;TIM4&lt;/b&gt;&lt;br&gt;&lt;/p&gt;&lt;hr size=&quot;1&quot;&gt;&lt;p style=&quot;margin:0px;margin-left:4px;&quot;&gt;Input capture&lt;/p&gt;" style="verticalAlign=top;align=left;overflow=fill;fontSize=12;fontFamily=Helvetica;html=1;rounded=0;shadow=0;comic=0;labelBackgroundColor=none;strokeWidth=3;strokeColor=#82b366;fillColor=#d5e8d4;" parent="1" vertex="1">
          <mxGeometry x="-340" y="400" width="120" height="120" as="geometry" />
        </mxCell>
        <mxCell id="mj1a00FP2Du6xyGbZo0E-69" style="edgeStyle=orthogonalEdgeStyle;rounded=0;orthogonalLoop=1;jettySize=auto;html=1;entryX=0.5;entryY=0;entryDx=0;entryDy=0;exitX=0;exitY=0.25;exitDx=0;exitDy=0;strokeWidth=5;strokeColor=#00FF00;" parent="1" source="mj1a00FP2Du6xyGbZo0E-52" target="mj1a00FP2Du6xyGbZo0E-52" edge="1">
          <mxGeometry relative="1" as="geometry">
            <Array as="points">
              <mxPoint x="780" y="550" />
              <mxPoint x="780" y="490" />
              <mxPoint x="860" y="490" />
            </Array>
          </mxGeometry>
        </mxCell>
        <mxCell id="mj1a00FP2Du6xyGbZo0E-70" value="vTaskDelay()" style="edgeLabel;html=1;align=center;verticalAlign=middle;resizable=0;points=[];" parent="mj1a00FP2Du6xyGbZo0E-69" vertex="1" connectable="0">
          <mxGeometry x="-0.0282" y="1" relative="1" as="geometry">
            <mxPoint x="28" as="offset" />
          </mxGeometry>
        </mxCell>
        <mxCell id="mj1a00FP2Du6xyGbZo0E-78" style="edgeStyle=orthogonalEdgeStyle;rounded=0;orthogonalLoop=1;jettySize=auto;html=1;strokeWidth=5;strokeColor=#00FF00;entryX=0;entryY=0.25;entryDx=0;entryDy=0;exitX=0;exitY=0.25;exitDx=0;exitDy=0;jumpStyle=arc;" parent="1" source="mj1a00FP2Du6xyGbZo0E-77" target="mj1a00FP2Du6xyGbZo0E-6" edge="1">
          <mxGeometry relative="1" as="geometry">
            <mxPoint x="140" y="580" as="sourcePoint" />
            <mxPoint y="80" as="targetPoint" />
            <Array as="points">
              <mxPoint x="30" y="550" />
              <mxPoint x="-360" y="550" />
              <mxPoint x="-360" y="110" />
            </Array>
          </mxGeometry>
        </mxCell>
        <mxCell id="mj1a00FP2Du6xyGbZo0E-80" value="xTaskNotifyFromISR()" style="edgeLabel;html=1;align=center;verticalAlign=middle;resizable=0;points=[];" parent="mj1a00FP2Du6xyGbZo0E-78" vertex="1" connectable="0">
          <mxGeometry x="0.7625" y="-3" relative="1" as="geometry">
            <mxPoint x="-3" y="-3" as="offset" />
          </mxGeometry>
        </mxCell>
        <mxCell id="mj1a00FP2Du6xyGbZo0E-79" style="edgeStyle=orthogonalEdgeStyle;rounded=0;orthogonalLoop=1;jettySize=auto;html=1;strokeWidth=5;strokeColor=#00FF00;exitX=0;exitY=0.25;exitDx=0;exitDy=0;entryX=0;entryY=0.25;entryDx=0;entryDy=0;jumpStyle=arc;" parent="1" source="mj1a00FP2Du6xyGbZo0E-77" target="mj1a00FP2Du6xyGbZo0E-17" edge="1">
          <mxGeometry relative="1" as="geometry">
            <mxPoint x="170" y="550" as="sourcePoint" />
            <mxPoint x="20" y="980" as="targetPoint" />
            <Array as="points">
              <mxPoint x="30" y="550" />
              <mxPoint x="-360" y="550" />
              <mxPoint x="-360" y="990" />
            </Array>
          </mxGeometry>
        </mxCell>
        <mxCell id="mj1a00FP2Du6xyGbZo0E-81" value="xTaskNotifyFromISR()" style="edgeLabel;html=1;align=center;verticalAlign=middle;resizable=0;points=[];" parent="mj1a00FP2Du6xyGbZo0E-79" vertex="1" connectable="0">
          <mxGeometry x="0.7469" y="-2" relative="1" as="geometry">
            <mxPoint as="offset" />
          </mxGeometry>
        </mxCell>
        <mxCell id="mj1a00FP2Du6xyGbZo0E-133" style="edgeStyle=orthogonalEdgeStyle;rounded=0;orthogonalLoop=1;jettySize=auto;html=1;entryX=1;entryY=0.5;entryDx=0;entryDy=0;exitX=0;exitY=0.75;exitDx=0;exitDy=0;jumpStyle=arc;" parent="1" source="mj1a00FP2Du6xyGbZo0E-77" target="mj1a00FP2Du6xyGbZo0E-90" edge="1">
          <mxGeometry relative="1" as="geometry">
            <Array as="points">
              <mxPoint x="-20" y="600" />
            </Array>
          </mxGeometry>
        </mxCell>
        <mxCell id="mj1a00FP2Du6xyGbZo0E-134" style="edgeStyle=orthogonalEdgeStyle;rounded=0;orthogonalLoop=1;jettySize=auto;html=1;entryX=0;entryY=0.5;entryDx=0;entryDy=0;" parent="1" source="mj1a00FP2Du6xyGbZo0E-77" target="mj1a00FP2Du6xyGbZo0E-135" edge="1">
          <mxGeometry relative="1" as="geometry">
            <mxPoint x="160" y="581" as="targetPoint" />
          </mxGeometry>
        </mxCell>
        <mxCell id="mj1a00FP2Du6xyGbZo0E-169" style="edgeStyle=orthogonalEdgeStyle;rounded=0;orthogonalLoop=1;jettySize=auto;html=1;entryX=0.75;entryY=1;entryDx=0;entryDy=0;strokeWidth=5;strokeColor=#00FF00;" parent="1" source="mj1a00FP2Du6xyGbZo0E-77" target="mj1a00FP2Du6xyGbZo0E-158" edge="1">
          <mxGeometry relative="1" as="geometry">
            <Array as="points">
              <mxPoint x="-360" y="550" />
              <mxPoint x="-360" y="1120" />
              <mxPoint x="1210" y="1120" />
            </Array>
          </mxGeometry>
        </mxCell>
        <mxCell id="mj1a00FP2Du6xyGbZo0E-170" value="xTaskNotifyFromISR()" style="edgeLabel;html=1;align=center;verticalAlign=middle;resizable=0;points=[];" parent="mj1a00FP2Du6xyGbZo0E-169" vertex="1" connectable="0">
          <mxGeometry x="0.5744" y="2" relative="1" as="geometry">
            <mxPoint x="81" as="offset" />
          </mxGeometry>
        </mxCell>
        <mxCell id="mj1a00FP2Du6xyGbZo0E-77" value="&lt;p style=&quot;margin:0px;margin-top:4px;text-align:center;&quot;&gt;&lt;i&gt;&amp;lt;&amp;lt;External&amp;gt;&amp;gt;&lt;/i&gt;&lt;br&gt;&lt;b&gt;CAN_RX&lt;/b&gt;&lt;/p&gt;&lt;hr size=&quot;1&quot;&gt;&lt;p style=&quot;margin:0px;margin-left:4px;&quot;&gt;CAN interrupt&lt;/p&gt;" style="verticalAlign=top;align=left;overflow=fill;fontSize=12;fontFamily=Helvetica;html=1;rounded=0;shadow=0;comic=0;labelBackgroundColor=none;strokeWidth=3;strokeColor=#82b366;fillColor=#d5e8d4;" parent="1" vertex="1">
          <mxGeometry x="30" y="540" width="100" height="80" as="geometry" />
        </mxCell>
        <mxCell id="mj1a00FP2Du6xyGbZo0E-89" style="edgeStyle=orthogonalEdgeStyle;rounded=0;orthogonalLoop=1;jettySize=auto;html=1;entryX=0;entryY=0.5;entryDx=0;entryDy=0;jumpStyle=arc;" parent="1" source="mj1a00FP2Du6xyGbZo0E-82" target="mj1a00FP2Du6xyGbZo0E-83" edge="1">
          <mxGeometry relative="1" as="geometry" />
        </mxCell>
        <mxCell id="mj1a00FP2Du6xyGbZo0E-82" value="&lt;p style=&quot;margin:0px;margin-top:4px;text-align:center;&quot;&gt;&lt;i&gt;&amp;lt;&amp;lt;External&amp;gt;&amp;gt;&lt;/i&gt;&lt;br&gt;&lt;b&gt;ADC2&lt;/b&gt;&lt;/p&gt;&lt;hr size=&quot;1&quot;&gt;&lt;p style=&quot;margin:0px;margin-left:4px;&quot;&gt;&lt;br&gt;&lt;/p&gt;" style="verticalAlign=top;align=left;overflow=fill;fontSize=12;fontFamily=Helvetica;html=1;rounded=0;shadow=0;comic=0;labelBackgroundColor=none;strokeWidth=3;strokeColor=#82b366;fillColor=#d5e8d4;" parent="1" vertex="1">
          <mxGeometry x="-190" y="315" width="80" height="60" as="geometry" />
        </mxCell>
        <mxCell id="mj1a00FP2Du6xyGbZo0E-88" style="edgeStyle=orthogonalEdgeStyle;rounded=0;orthogonalLoop=1;jettySize=auto;html=1;entryX=0;entryY=0.75;entryDx=0;entryDy=0;jumpStyle=arc;" parent="1" source="mj1a00FP2Du6xyGbZo0E-83" target="mj1a00FP2Du6xyGbZo0E-3" edge="1">
          <mxGeometry relative="1" as="geometry" />
        </mxCell>
        <mxCell id="mj1a00FP2Du6xyGbZo0E-83" value="&lt;p style=&quot;margin:0px;margin-top:4px;text-align:center;&quot;&gt;&lt;i&gt;&amp;lt;&amp;lt;Queue&amp;gt;&amp;gt;&lt;/i&gt;&lt;br&gt;&lt;b&gt;qADC_&lt;/b&gt;&lt;b style=&quot;background-color: initial;&quot;&gt;L&lt;/b&gt;&lt;/p&gt;&lt;hr size=&quot;1&quot;&gt;&lt;p style=&quot;border-color: var(--border-color); margin: 0px 0px 0px 4px;&quot;&gt;ADC2_IN0&lt;/p&gt;&lt;p style=&quot;margin:0px;margin-left:4px;&quot;&gt;ADC2_IN1&lt;/p&gt;&lt;p style=&quot;border-color: var(--border-color); margin: 0px 0px 0px 4px;&quot;&gt;ADC2_IN2&lt;/p&gt;&lt;p style=&quot;border-color: var(--border-color); margin: 0px 0px 0px 4px;&quot;&gt;ADC2_IN3&lt;/p&gt;" style="verticalAlign=top;align=left;overflow=fill;fontSize=12;fontFamily=Helvetica;html=1;rounded=0;shadow=0;comic=0;labelBackgroundColor=none;strokeWidth=3;strokeColor=#6c8ebf;fillColor=#dae8fc;" parent="1" vertex="1">
          <mxGeometry x="-80" y="290" width="80" height="110" as="geometry" />
        </mxCell>
        <mxCell id="mj1a00FP2Du6xyGbZo0E-92" style="edgeStyle=orthogonalEdgeStyle;rounded=0;orthogonalLoop=1;jettySize=auto;html=1;entryX=0;entryY=0.75;entryDx=0;entryDy=0;jumpStyle=arc;" parent="1" source="mj1a00FP2Du6xyGbZo0E-90" target="mj1a00FP2Du6xyGbZo0E-6" edge="1">
          <mxGeometry relative="1" as="geometry">
            <Array as="points">
              <mxPoint x="-350" y="600" />
              <mxPoint x="-350" y="170" />
            </Array>
          </mxGeometry>
        </mxCell>
        <mxCell id="mj1a00FP2Du6xyGbZo0E-93" style="edgeStyle=orthogonalEdgeStyle;rounded=0;orthogonalLoop=1;jettySize=auto;html=1;entryX=0;entryY=0.75;entryDx=0;entryDy=0;jumpStyle=arc;" parent="1" source="mj1a00FP2Du6xyGbZo0E-90" target="mj1a00FP2Du6xyGbZo0E-17" edge="1">
          <mxGeometry relative="1" as="geometry">
            <Array as="points">
              <mxPoint x="-350" y="600" />
              <mxPoint x="-350" y="1050" />
            </Array>
          </mxGeometry>
        </mxCell>
        <mxCell id="mj1a00FP2Du6xyGbZo0E-90" value="&lt;p style=&quot;margin:0px;margin-top:4px;text-align:center;&quot;&gt;&lt;i&gt;&amp;lt;&amp;lt;Queue&amp;gt;&amp;gt;&lt;/i&gt;&lt;br&gt;&lt;b&gt;qTemRef&lt;/b&gt;&lt;/p&gt;&lt;hr size=&quot;1&quot;&gt;&lt;p style=&quot;border-color: var(--border-color); margin: 0px 0px 0px 4px;&quot;&gt;TemRef_L&lt;/p&gt;&lt;p style=&quot;border-color: var(--border-color); margin: 0px 0px 0px 4px;&quot;&gt;TemRef_R&lt;/p&gt;" style="verticalAlign=top;align=left;overflow=fill;fontSize=12;fontFamily=Helvetica;html=1;rounded=0;shadow=0;comic=0;labelBackgroundColor=none;strokeWidth=3;strokeColor=#6c8ebf;fillColor=#dae8fc;" parent="1" vertex="1">
          <mxGeometry x="-200" y="560" width="80" height="80" as="geometry" />
        </mxCell>
        <mxCell id="mj1a00FP2Du6xyGbZo0E-119" style="edgeStyle=orthogonalEdgeStyle;rounded=0;orthogonalLoop=1;jettySize=auto;html=1;strokeWidth=5;strokeColor=#00FF00;entryX=0;entryY=0.5;entryDx=0;entryDy=0;exitX=1;exitY=0.5;exitDx=0;exitDy=0;jumpStyle=arc;" parent="1" source="mj1a00FP2Du6xyGbZo0E-124" target="mj1a00FP2Du6xyGbZo0E-16" edge="1">
          <mxGeometry relative="1" as="geometry">
            <mxPoint x="-660" y="900" as="sourcePoint" />
            <mxPoint x="-520" y="880" as="targetPoint" />
          </mxGeometry>
        </mxCell>
        <mxCell id="mj1a00FP2Du6xyGbZo0E-120" value="xTaskNotifyFromISR()" style="edgeLabel;html=1;align=center;verticalAlign=middle;resizable=0;points=[];" parent="mj1a00FP2Du6xyGbZo0E-119" vertex="1" connectable="0">
          <mxGeometry x="0.0258" relative="1" as="geometry">
            <mxPoint x="-23" as="offset" />
          </mxGeometry>
        </mxCell>
        <mxCell id="mj1a00FP2Du6xyGbZo0E-121" style="edgeStyle=orthogonalEdgeStyle;rounded=0;orthogonalLoop=1;jettySize=auto;html=1;entryX=0;entryY=0.25;entryDx=0;entryDy=0;strokeWidth=5;strokeColor=#00FF00;exitX=1;exitY=0.25;exitDx=0;exitDy=0;" parent="1" source="mj1a00FP2Du6xyGbZo0E-123" target="mj1a00FP2Du6xyGbZo0E-14" edge="1">
          <mxGeometry relative="1" as="geometry">
            <mxPoint x="-580" y="880" as="sourcePoint" />
            <mxPoint x="-440" y="830" as="targetPoint" />
          </mxGeometry>
        </mxCell>
        <mxCell id="mj1a00FP2Du6xyGbZo0E-122" value="xTaskNotifyFromISR()" style="edgeLabel;html=1;align=center;verticalAlign=middle;resizable=0;points=[];" parent="mj1a00FP2Du6xyGbZo0E-121" vertex="1" connectable="0">
          <mxGeometry x="0.0258" relative="1" as="geometry">
            <mxPoint x="-23" as="offset" />
          </mxGeometry>
        </mxCell>
        <mxCell id="mj1a00FP2Du6xyGbZo0E-123" value="&lt;p style=&quot;margin:0px;margin-top:4px;text-align:center;&quot;&gt;&lt;i&gt;&amp;lt;&amp;lt;External&amp;gt;&amp;gt;&lt;/i&gt;&lt;br&gt;&lt;b&gt;TIM8&lt;/b&gt;&lt;/p&gt;&lt;hr size=&quot;1&quot;&gt;&lt;p style=&quot;margin:0px;margin-left:4px;&quot;&gt;50kHz&lt;/p&gt;" style="verticalAlign=top;align=left;overflow=fill;fontSize=12;fontFamily=Helvetica;html=1;rounded=0;shadow=0;comic=0;labelBackgroundColor=none;strokeWidth=3;strokeColor=#82b366;fillColor=#d5e8d4;" parent="1" vertex="1">
          <mxGeometry x="-340" y="800" width="120" height="120" as="geometry" />
        </mxCell>
        <mxCell id="mj1a00FP2Du6xyGbZo0E-124" value="&lt;p style=&quot;margin:0px;margin-top:4px;text-align:center;&quot;&gt;&lt;i&gt;&amp;lt;&amp;lt;External&amp;gt;&amp;gt;&lt;/i&gt;&lt;br&gt;&lt;b style=&quot;border-color: var(--border-color);&quot;&gt;TIM2&lt;/b&gt;&lt;br&gt;&lt;/p&gt;&lt;hr size=&quot;1&quot;&gt;&lt;p style=&quot;margin:0px;margin-left:4px;&quot;&gt;Input capture&lt;/p&gt;" style="verticalAlign=top;align=left;overflow=fill;fontSize=12;fontFamily=Helvetica;html=1;rounded=0;shadow=0;comic=0;labelBackgroundColor=none;strokeWidth=3;strokeColor=#82b366;fillColor=#d5e8d4;" parent="1" vertex="1">
          <mxGeometry x="-340" y="640" width="120" height="120" as="geometry" />
        </mxCell>
        <mxCell id="mj1a00FP2Du6xyGbZo0E-125" style="edgeStyle=orthogonalEdgeStyle;rounded=0;orthogonalLoop=1;jettySize=auto;html=1;entryX=0;entryY=0.5;entryDx=0;entryDy=0;jumpStyle=arc;" parent="1" source="mj1a00FP2Du6xyGbZo0E-126" target="mj1a00FP2Du6xyGbZo0E-128" edge="1">
          <mxGeometry relative="1" as="geometry" />
        </mxCell>
        <mxCell id="mj1a00FP2Du6xyGbZo0E-126" value="&lt;p style=&quot;margin:0px;margin-top:4px;text-align:center;&quot;&gt;&lt;i&gt;&amp;lt;&amp;lt;External&amp;gt;&amp;gt;&lt;/i&gt;&lt;br&gt;&lt;b&gt;ADC1&lt;/b&gt;&lt;/p&gt;&lt;hr size=&quot;1&quot;&gt;&lt;p style=&quot;margin:0px;margin-left:4px;&quot;&gt;&lt;br&gt;&lt;/p&gt;" style="verticalAlign=top;align=left;overflow=fill;fontSize=12;fontFamily=Helvetica;html=1;rounded=0;shadow=0;comic=0;labelBackgroundColor=none;strokeWidth=3;strokeColor=#82b366;fillColor=#d5e8d4;" parent="1" vertex="1">
          <mxGeometry x="-190" y="875" width="80" height="60" as="geometry" />
        </mxCell>
        <mxCell id="mj1a00FP2Du6xyGbZo0E-127" style="edgeStyle=orthogonalEdgeStyle;rounded=0;orthogonalLoop=1;jettySize=auto;html=1;entryX=0;entryY=0.75;entryDx=0;entryDy=0;jumpStyle=arc;" parent="1" source="mj1a00FP2Du6xyGbZo0E-128" target="mj1a00FP2Du6xyGbZo0E-14" edge="1">
          <mxGeometry relative="1" as="geometry">
            <mxPoint x="-440" y="890" as="targetPoint" />
          </mxGeometry>
        </mxCell>
        <mxCell id="mj1a00FP2Du6xyGbZo0E-128" value="&lt;p style=&quot;margin:0px;margin-top:4px;text-align:center;&quot;&gt;&lt;i&gt;&amp;lt;&amp;lt;Queue&amp;gt;&amp;gt;&lt;/i&gt;&lt;br&gt;&lt;b&gt;qADC_R&lt;/b&gt;&lt;/p&gt;&lt;hr size=&quot;1&quot;&gt;&lt;p style=&quot;border-color: var(--border-color); margin: 0px 0px 0px 4px;&quot;&gt;ADC1_IN6&lt;/p&gt;&lt;p style=&quot;margin:0px;margin-left:4px;&quot;&gt;ADC1_IN7&lt;/p&gt;&lt;p style=&quot;border-color: var(--border-color); margin: 0px 0px 0px 4px;&quot;&gt;ADC1_IN8&lt;/p&gt;&lt;p style=&quot;border-color: var(--border-color); margin: 0px 0px 0px 4px;&quot;&gt;ADC1_IN9&lt;/p&gt;" style="verticalAlign=top;align=left;overflow=fill;fontSize=12;fontFamily=Helvetica;html=1;rounded=0;shadow=0;comic=0;labelBackgroundColor=none;strokeWidth=3;strokeColor=#6c8ebf;fillColor=#dae8fc;" parent="1" vertex="1">
          <mxGeometry x="-80" y="850" width="80" height="110" as="geometry" />
        </mxCell>
        <mxCell id="mj1a00FP2Du6xyGbZo0E-155" style="edgeStyle=orthogonalEdgeStyle;rounded=0;orthogonalLoop=1;jettySize=auto;html=1;entryX=0;entryY=0.5;entryDx=0;entryDy=0;" parent="1" source="mj1a00FP2Du6xyGbZo0E-129" target="mj1a00FP2Du6xyGbZo0E-130" edge="1">
          <mxGeometry relative="1" as="geometry" />
        </mxCell>
        <mxCell id="mj1a00FP2Du6xyGbZo0E-129" value="&lt;p style=&quot;margin:0px;margin-top:4px;text-align:center;&quot;&gt;&lt;i&gt;&amp;lt;&amp;lt;External&amp;gt;&amp;gt;&lt;/i&gt;&lt;br&gt;&lt;b&gt;ADC3&lt;/b&gt;&lt;/p&gt;&lt;hr size=&quot;1&quot;&gt;&lt;p style=&quot;margin:0px;margin-left:4px;&quot;&gt;&lt;br&gt;&lt;/p&gt;" style="verticalAlign=top;align=left;overflow=fill;fontSize=12;fontFamily=Helvetica;html=1;rounded=0;shadow=0;comic=0;labelBackgroundColor=none;strokeWidth=3;strokeColor=#82b366;fillColor=#d5e8d4;" parent="1" vertex="1">
          <mxGeometry x="580" y="580" width="80" height="60" as="geometry" />
        </mxCell>
        <mxCell id="mj1a00FP2Du6xyGbZo0E-131" style="edgeStyle=orthogonalEdgeStyle;rounded=0;orthogonalLoop=1;jettySize=auto;html=1;entryX=0;entryY=0.75;entryDx=0;entryDy=0;exitX=1;exitY=0.5;exitDx=0;exitDy=0;" parent="1" source="mj1a00FP2Du6xyGbZo0E-130" target="mj1a00FP2Du6xyGbZo0E-52" edge="1">
          <mxGeometry relative="1" as="geometry">
            <mxPoint x="790" y="630" as="sourcePoint" />
            <Array as="points">
              <mxPoint x="780" y="610" />
              <mxPoint x="780" y="610" />
            </Array>
          </mxGeometry>
        </mxCell>
        <mxCell id="mj1a00FP2Du6xyGbZo0E-130" value="&lt;p style=&quot;margin:0px;margin-top:4px;text-align:center;&quot;&gt;&lt;i&gt;&amp;lt;&amp;lt;Queue&amp;gt;&amp;gt;&lt;/i&gt;&lt;br&gt;&lt;b&gt;qADC_&lt;/b&gt;&lt;b style=&quot;background-color: initial;&quot;&gt;Temp&lt;/b&gt;&lt;/p&gt;&lt;hr size=&quot;1&quot;&gt;&lt;p style=&quot;border-color: var(--border-color); margin: 0px 0px 0px 4px;&quot;&gt;ADC3_IN10&lt;/p&gt;&lt;p style=&quot;margin:0px;margin-left:4px;&quot;&gt;ADC3_IN11&lt;/p&gt;&lt;p style=&quot;border-color: var(--border-color); margin: 0px 0px 0px 4px;&quot;&gt;ADC3_IN12&lt;/p&gt;&lt;p style=&quot;border-color: var(--border-color); margin: 0px 0px 0px 4px;&quot;&gt;ADC3_IN13&lt;/p&gt;" style="verticalAlign=top;align=left;overflow=fill;fontSize=12;fontFamily=Helvetica;html=1;rounded=0;shadow=0;comic=0;labelBackgroundColor=none;strokeWidth=3;strokeColor=#6c8ebf;fillColor=#dae8fc;" parent="1" vertex="1">
          <mxGeometry x="690" y="553.75" width="80" height="112.5" as="geometry" />
        </mxCell>
        <mxCell id="Qu-kICh-btU63BKfISR2-6" style="edgeStyle=orthogonalEdgeStyle;rounded=0;orthogonalLoop=1;jettySize=auto;html=1;entryX=0;entryY=0.5;entryDx=0;entryDy=0;" parent="1" source="mj1a00FP2Du6xyGbZo0E-135" target="mj1a00FP2Du6xyGbZo0E-136" edge="1">
          <mxGeometry relative="1" as="geometry" />
        </mxCell>
        <mxCell id="mj1a00FP2Du6xyGbZo0E-135" value="&lt;p style=&quot;margin:0px;margin-top:4px;text-align:center;&quot;&gt;&lt;i&gt;&amp;lt;&amp;lt;Queue&amp;gt;&amp;gt;&lt;/i&gt;&lt;br&gt;&lt;b&gt;qEnable&lt;/b&gt;&lt;/p&gt;&lt;hr size=&quot;1&quot;&gt;&lt;p style=&quot;border-color: var(--border-color); margin: 0px 0px 0px 4px;&quot;&gt;Enable&lt;/p&gt;" style="verticalAlign=top;align=left;overflow=fill;fontSize=12;fontFamily=Helvetica;html=1;rounded=0;shadow=0;comic=0;labelBackgroundColor=none;strokeWidth=3;strokeColor=#6c8ebf;fillColor=#dae8fc;" parent="1" vertex="1">
          <mxGeometry x="160" y="540" width="80" height="80" as="geometry" />
        </mxCell>
        <mxCell id="mj1a00FP2Du6xyGbZo0E-144" style="edgeStyle=orthogonalEdgeStyle;rounded=0;orthogonalLoop=1;jettySize=auto;html=1;entryX=0;entryY=0.5;entryDx=0;entryDy=0;jumpStyle=arc;" parent="1" source="mj1a00FP2Du6xyGbZo0E-136" target="mj1a00FP2Du6xyGbZo0E-142" edge="1">
          <mxGeometry relative="1" as="geometry">
            <Array as="points">
              <mxPoint x="430" y="550" />
              <mxPoint x="430" y="490" />
            </Array>
          </mxGeometry>
        </mxCell>
        <mxCell id="mj1a00FP2Du6xyGbZo0E-148" style="edgeStyle=orthogonalEdgeStyle;rounded=0;orthogonalLoop=1;jettySize=auto;html=1;entryX=0.5;entryY=0;entryDx=0;entryDy=0;strokeColor=#00FF00;strokeWidth=5;exitX=0;exitY=0.25;exitDx=0;exitDy=0;" parent="1" source="mj1a00FP2Du6xyGbZo0E-136" target="mj1a00FP2Du6xyGbZo0E-136" edge="1">
          <mxGeometry relative="1" as="geometry">
            <mxPoint x="340" y="490" as="targetPoint" />
            <Array as="points">
              <mxPoint x="260" y="525" />
              <mxPoint x="260" y="470" />
              <mxPoint x="340" y="470" />
            </Array>
          </mxGeometry>
        </mxCell>
        <mxCell id="mj1a00FP2Du6xyGbZo0E-152" value="while(1)" style="edgeLabel;html=1;align=center;verticalAlign=middle;resizable=0;points=[];" parent="mj1a00FP2Du6xyGbZo0E-148" vertex="1" connectable="0">
          <mxGeometry x="0.25" relative="1" as="geometry">
            <mxPoint as="offset" />
          </mxGeometry>
        </mxCell>
        <mxCell id="mj1a00FP2Du6xyGbZo0E-168" style="edgeStyle=orthogonalEdgeStyle;rounded=0;orthogonalLoop=1;jettySize=auto;html=1;entryX=1;entryY=0.5;entryDx=0;entryDy=0;" parent="1" source="mj1a00FP2Du6xyGbZo0E-136" target="mj1a00FP2Du6xyGbZo0E-166" edge="1">
          <mxGeometry relative="1" as="geometry">
            <Array as="points">
              <mxPoint x="430" y="550" />
              <mxPoint x="430" y="645" />
            </Array>
          </mxGeometry>
        </mxCell>
        <mxCell id="mj1a00FP2Du6xyGbZo0E-136" value="&lt;p style=&quot;margin:0px;margin-top:4px;text-align:center;&quot;&gt;&lt;i&gt;&amp;lt;&amp;lt;Task&amp;gt;&amp;gt; P1&lt;/i&gt;&lt;br&gt;&lt;b&gt;FSM&lt;/b&gt;&lt;/p&gt;&lt;hr size=&quot;1&quot;&gt;&lt;p style=&quot;margin:0px;margin-left:4px;&quot;&gt;evEvents()&lt;/p&gt;&lt;p style=&quot;margin:0px;margin-left:4px;&quot;&gt;setState()&lt;/p&gt;" style="verticalAlign=top;align=left;overflow=fill;fontSize=12;fontFamily=Helvetica;html=1;rounded=0;shadow=0;comic=0;labelBackgroundColor=none;strokeWidth=3;strokeColor=#b85450;fillColor=#f8cecc;" parent="1" vertex="1">
          <mxGeometry x="280" y="500" width="120" height="100" as="geometry" />
        </mxCell>
        <mxCell id="mj1a00FP2Du6xyGbZo0E-139" style="edgeStyle=orthogonalEdgeStyle;rounded=0;orthogonalLoop=1;jettySize=auto;html=1;entryX=1;entryY=0.75;entryDx=0;entryDy=0;jumpStyle=arc;" parent="1" source="mj1a00FP2Du6xyGbZo0E-137" target="mj1a00FP2Du6xyGbZo0E-136" edge="1">
          <mxGeometry relative="1" as="geometry">
            <Array as="points">
              <mxPoint x="420" y="620" />
              <mxPoint x="420" y="575" />
            </Array>
          </mxGeometry>
        </mxCell>
        <mxCell id="mj1a00FP2Du6xyGbZo0E-137" value="&lt;p style=&quot;margin:0px;margin-top:4px;text-align:center;&quot;&gt;&lt;i&gt;&amp;lt;&amp;lt;Queue&amp;gt;&amp;gt;&lt;/i&gt;&lt;br&gt;&lt;b&gt;qFSM_Events&lt;/b&gt;&lt;/p&gt;&lt;hr size=&quot;1&quot;&gt;&lt;p style=&quot;border-color: var(--border-color); margin: 0px 0px 0px 4px;&quot;&gt;Event_L&lt;/p&gt;&lt;p style=&quot;border-color: var(--border-color); margin: 0px 0px 0px 4px;&quot;&gt;Event_R&lt;/p&gt;" style="verticalAlign=top;align=left;overflow=fill;fontSize=12;fontFamily=Helvetica;html=1;rounded=0;shadow=0;comic=0;labelBackgroundColor=none;strokeWidth=3;strokeColor=#6c8ebf;fillColor=#dae8fc;" parent="1" vertex="1">
          <mxGeometry x="450" y="580" width="90" height="80" as="geometry" />
        </mxCell>
        <mxCell id="mj1a00FP2Du6xyGbZo0E-145" style="edgeStyle=orthogonalEdgeStyle;rounded=0;orthogonalLoop=1;jettySize=auto;html=1;entryX=0;entryY=0.75;entryDx=0;entryDy=0;jumpStyle=arc;" parent="1" source="mj1a00FP2Du6xyGbZo0E-142" target="mj1a00FP2Du6xyGbZo0E-4" edge="1">
          <mxGeometry relative="1" as="geometry">
            <Array as="points">
              <mxPoint x="670" y="500" />
              <mxPoint x="670" y="330" />
            </Array>
          </mxGeometry>
        </mxCell>
        <mxCell id="mj1a00FP2Du6xyGbZo0E-146" style="edgeStyle=orthogonalEdgeStyle;rounded=0;orthogonalLoop=1;jettySize=auto;html=1;entryX=0;entryY=0.25;entryDx=0;entryDy=0;jumpStyle=arc;" parent="1" source="mj1a00FP2Du6xyGbZo0E-142" target="mj1a00FP2Du6xyGbZo0E-15" edge="1">
          <mxGeometry relative="1" as="geometry">
            <Array as="points">
              <mxPoint x="560" y="500" />
              <mxPoint x="560" y="660" />
              <mxPoint x="670" y="660" />
              <mxPoint x="670" y="830" />
            </Array>
          </mxGeometry>
        </mxCell>
        <mxCell id="mj1a00FP2Du6xyGbZo0E-142" value="&lt;p style=&quot;margin:0px;margin-top:4px;text-align:center;&quot;&gt;&lt;i&gt;&amp;lt;&amp;lt;Queue&amp;gt;&amp;gt;&lt;/i&gt;&lt;br&gt;&lt;b&gt;qFSM_State&lt;/b&gt;&lt;/p&gt;&lt;hr size=&quot;1&quot;&gt;&lt;p style=&quot;border-color: var(--border-color); margin: 0px 0px 0px 4px;&quot;&gt;State_L&lt;/p&gt;&lt;p style=&quot;border-color: var(--border-color); margin: 0px 0px 0px 4px;&quot;&gt;State_R&lt;/p&gt;" style="verticalAlign=top;align=left;overflow=fill;fontSize=12;fontFamily=Helvetica;html=1;rounded=0;shadow=0;comic=0;labelBackgroundColor=none;strokeWidth=3;strokeColor=#6c8ebf;fillColor=#dae8fc;" parent="1" vertex="1">
          <mxGeometry x="450" y="450" width="80" height="80" as="geometry" />
        </mxCell>
        <mxCell id="mj1a00FP2Du6xyGbZo0E-151" style="edgeStyle=orthogonalEdgeStyle;rounded=0;orthogonalLoop=1;jettySize=auto;html=1;entryX=0;entryY=0.75;entryDx=0;entryDy=0;strokeWidth=5;strokeColor=#00FF00;" parent="1" source="mj1a00FP2Du6xyGbZo0E-15" target="mj1a00FP2Du6xyGbZo0E-15" edge="1">
          <mxGeometry relative="1" as="geometry">
            <Array as="points">
              <mxPoint x="740" y="940" />
              <mxPoint x="670" y="940" />
              <mxPoint x="670" y="890" />
            </Array>
          </mxGeometry>
        </mxCell>
        <mxCell id="mj1a00FP2Du6xyGbZo0E-154" value="while(1)" style="edgeLabel;html=1;align=center;verticalAlign=middle;resizable=0;points=[];" parent="mj1a00FP2Du6xyGbZo0E-151" vertex="1" connectable="0">
          <mxGeometry x="-0.3148" y="-3" relative="1" as="geometry">
            <mxPoint as="offset" />
          </mxGeometry>
        </mxCell>
        <mxCell id="mj1a00FP2Du6xyGbZo0E-165" style="edgeStyle=orthogonalEdgeStyle;rounded=0;orthogonalLoop=1;jettySize=auto;html=1;entryX=0;entryY=0.5;entryDx=0;entryDy=0;" parent="1" source="mj1a00FP2Du6xyGbZo0E-158" target="mj1a00FP2Du6xyGbZo0E-159" edge="1">
          <mxGeometry relative="1" as="geometry" />
        </mxCell>
        <mxCell id="mj1a00FP2Du6xyGbZo0E-158" value="&lt;p style=&quot;margin:0px;margin-top:4px;text-align:center;&quot;&gt;&lt;i&gt;&amp;lt;&amp;lt;Task&amp;gt;&amp;gt; P3&lt;/i&gt;&lt;br&gt;&lt;b&gt;CAN_TX&lt;/b&gt;&lt;/p&gt;&lt;hr size=&quot;1&quot;&gt;&lt;p style=&quot;border-color: var(--border-color); margin: 0px 0px 0px 4px;&quot;&gt;CAN_TX()&lt;/p&gt;&lt;div&gt;&lt;br&gt;&lt;/div&gt;" style="verticalAlign=top;align=left;overflow=fill;fontSize=12;fontFamily=Helvetica;html=1;rounded=0;shadow=0;comic=0;labelBackgroundColor=none;strokeWidth=3;strokeColor=#b85450;fillColor=#f8cecc;" parent="1" vertex="1">
          <mxGeometry x="1120" y="520" width="120" height="120" as="geometry" />
        </mxCell>
        <mxCell id="mj1a00FP2Du6xyGbZo0E-159" value="&lt;p style=&quot;margin:0px;margin-top:4px;text-align:center;&quot;&gt;&lt;i&gt;&amp;lt;&amp;lt;External&amp;gt;&amp;gt;&lt;/i&gt;&lt;br&gt;&lt;b&gt;CAN_RX&lt;/b&gt;&lt;/p&gt;&lt;hr size=&quot;1&quot;&gt;&lt;p style=&quot;margin:0px;margin-left:4px;&quot;&gt;CAN interrupt&lt;/p&gt;" style="verticalAlign=top;align=left;overflow=fill;fontSize=12;fontFamily=Helvetica;html=1;rounded=0;shadow=0;comic=0;labelBackgroundColor=none;strokeWidth=3;strokeColor=#82b366;fillColor=#d5e8d4;" parent="1" vertex="1">
          <mxGeometry x="1280" y="540" width="100" height="80" as="geometry" />
        </mxCell>
        <mxCell id="mj1a00FP2Du6xyGbZo0E-166" value="&lt;p style=&quot;margin:0px;margin-top:4px;text-align:center;&quot;&gt;&lt;i&gt;&amp;lt;&amp;lt;Task&amp;gt;&amp;gt; P4&lt;/i&gt;&lt;br&gt;&lt;b&gt;LEDs&lt;/b&gt;&lt;/p&gt;&lt;hr size=&quot;1&quot;&gt;&lt;p style=&quot;margin:0px;margin-left:4px;&quot;&gt;LEDs()&lt;/p&gt;" style="verticalAlign=top;align=left;overflow=fill;fontSize=12;fontFamily=Helvetica;html=1;rounded=0;shadow=0;comic=0;labelBackgroundColor=none;strokeWidth=3;strokeColor=#b85450;fillColor=#f8cecc;" parent="1" vertex="1">
          <mxGeometry x="280" y="610" width="120" height="70" as="geometry" />
        </mxCell>
        <mxCell id="oMrwoiRcGXY_ZSWIXKVv-5" style="edgeStyle=orthogonalEdgeStyle;rounded=0;orthogonalLoop=1;jettySize=auto;html=1;entryX=0.5;entryY=0;entryDx=0;entryDy=0;" parent="1" source="oMrwoiRcGXY_ZSWIXKVv-2" target="oMrwoiRcGXY_ZSWIXKVv-3" edge="1">
          <mxGeometry relative="1" as="geometry" />
        </mxCell>
        <mxCell id="oMrwoiRcGXY_ZSWIXKVv-6" value="data transfer" style="edgeLabel;html=1;align=center;verticalAlign=middle;resizable=0;points=[];" parent="oMrwoiRcGXY_ZSWIXKVv-5" vertex="1" connectable="0">
          <mxGeometry x="-0.2776" y="1" relative="1" as="geometry">
            <mxPoint as="offset" />
          </mxGeometry>
        </mxCell>
        <mxCell id="oMrwoiRcGXY_ZSWIXKVv-8" style="edgeStyle=orthogonalEdgeStyle;rounded=0;orthogonalLoop=1;jettySize=auto;html=1;entryX=0.5;entryY=0;entryDx=0;entryDy=0;strokeWidth=5;strokeColor=#00FF00;" parent="1" source="oMrwoiRcGXY_ZSWIXKVv-2" target="oMrwoiRcGXY_ZSWIXKVv-2" edge="1">
          <mxGeometry relative="1" as="geometry">
            <mxPoint x="1140" y="175" as="targetPoint" />
            <Array as="points">
              <mxPoint x="1120" y="195" />
              <mxPoint x="1120" y="155" />
              <mxPoint x="1190" y="155" />
            </Array>
          </mxGeometry>
        </mxCell>
        <mxCell id="oMrwoiRcGXY_ZSWIXKVv-9" value="runTask()" style="edgeLabel;html=1;align=center;verticalAlign=middle;resizable=0;points=[];" parent="oMrwoiRcGXY_ZSWIXKVv-8" vertex="1" connectable="0">
          <mxGeometry x="0.2553" y="1" relative="1" as="geometry">
            <mxPoint x="-3" y="1" as="offset" />
          </mxGeometry>
        </mxCell>
        <mxCell id="oMrwoiRcGXY_ZSWIXKVv-2" value="&lt;b&gt;Task&lt;/b&gt;" style="whiteSpace=wrap;html=1;fillColor=#f8cecc;strokeColor=#b85450;strokeWidth=3;" parent="1" vertex="1">
          <mxGeometry x="1160" y="185" width="60" height="20" as="geometry" />
        </mxCell>
        <mxCell id="oMrwoiRcGXY_ZSWIXKVv-3" value="&lt;b&gt;Queue&lt;/b&gt;" style="whiteSpace=wrap;html=1;fillColor=#dae8fc;strokeColor=#6c8ebf;strokeWidth=3;" parent="1" vertex="1">
          <mxGeometry x="1160" y="245" width="60" height="20" as="geometry" />
        </mxCell>
        <mxCell id="oMrwoiRcGXY_ZSWIXKVv-15" value="&lt;b&gt;&lt;font style=&quot;font-size: 16px;&quot;&gt;Legend&lt;/font&gt;&lt;/b&gt;" style="whiteSpace=wrap;html=1;" parent="1" vertex="1">
          <mxGeometry x="1050" y="110" width="180" height="30" as="geometry" />
        </mxCell>
        <mxCell id="oMrwoiRcGXY_ZSWIXKVv-16" value="&lt;b&gt;Peripheral&lt;/b&gt;" style="whiteSpace=wrap;html=1;fillColor=#d5e8d4;strokeColor=#82b366;strokeWidth=3;" parent="1" vertex="1">
          <mxGeometry x="1060" y="225" width="70" height="20" as="geometry" />
        </mxCell>
        <mxCell id="8UU30WTyEzk9Vyqi4tXm-1" style="edgeStyle=orthogonalEdgeStyle;rounded=0;orthogonalLoop=1;jettySize=auto;html=1;entryX=0;entryY=0.5;entryDx=0;entryDy=0;strokeWidth=5;strokeColor=#00FF00;" edge="1" parent="1" source="mj1a00FP2Du6xyGbZo0E-166" target="mj1a00FP2Du6xyGbZo0E-166">
          <mxGeometry relative="1" as="geometry">
            <Array as="points">
              <mxPoint x="340" y="700" />
              <mxPoint x="240" y="700" />
              <mxPoint x="240" y="645" />
            </Array>
          </mxGeometry>
        </mxCell>
        <mxCell id="8UU30WTyEzk9Vyqi4tXm-2" value="vTaskDelay()" style="edgeLabel;html=1;align=center;verticalAlign=middle;resizable=0;points=[];" vertex="1" connectable="0" parent="8UU30WTyEzk9Vyqi4tXm-1">
          <mxGeometry x="-0.3378" relative="1" as="geometry">
            <mxPoint as="offset" />
          </mxGeometry>
        </mxCell>
      </root>
    </mxGraphModel>
  </diagram>
</mxfile>
